<?xml version="1.0" encoding="UTF-8"?>
<svg version="1.1" xmlns="http://www.w3.org/2000/svg" width="512" height="512">
<path d="M0 0 C12.22527251 -0.91562374 12.22527251 -0.91562374 16.453125 1.265625 C18.84022098 3.3317669 20.58553613 5.17107227 22 8 C22.31658385 12.73944653 22.19110347 17.38447404 21 22 C20.34 22 19.68 22 19 22 C18.835 23.27875 18.67 24.5575 18.5 25.875 C18.4071875 26.59429687 18.314375 27.31359375 18.21875 28.0546875 C17.89058803 30.97298503 18.24689093 33.17584098 19 36 C17.515 36.495 17.515 36.495 16 37 C14.96683512 39.79172239 14.96683512 39.79172239 14.3125 43.0625 C14.06113281 44.16722656 13.80976563 45.27195313 13.55078125 46.41015625 C13.36902344 47.26480469 13.18726563 48.11945313 13 49 C12.34 49 11.68 49 11 49 C10.896875 50.134375 10.79375 51.26875 10.6875 52.4375 C10.19138145 56.49272988 9.06094508 60.10590851 7.69921875 63.9453125 C6.90876682 66.26809304 6.39052905 68.5787199 6 71 C5.34 71 4.68 71 4 71 C3.93941406 71.68707031 3.87882812 72.37414062 3.81640625 73.08203125 C3.69072266 74.43361328 3.69072266 74.43361328 3.5625 75.8125 C3.48128906 76.70582031 3.40007812 77.59914063 3.31640625 78.51953125 C3 81 3 81 2 84 C1.34 84 0.68 84 0 84 C-0.06058594 84.67546875 -0.12117188 85.3509375 -0.18359375 86.046875 C-0.26738281 86.93890625 -0.35117187 87.8309375 -0.4375 88.75 C-0.51871094 89.63171875 -0.59992188 90.5134375 -0.68359375 91.421875 C-0.96318146 93.69999708 -1.4005805 95.78964058 -2 98 C-2.34060811 99.66519519 -2.67558396 101.33157466 -3 103 C-3.66 103 -4.32 103 -5 103 C-5.12375 104.19625 -5.2475 105.3925 -5.375 106.625 C-5.82762681 110.28481107 -6.73676132 113.52609364 -8 117 C-8.34976758 118.32911682 -8.69096017 119.66082739 -9 121 C-9.66 121 -10.32 121 -11 121 C-11.06058594 121.59167969 -11.12117188 122.18335938 -11.18359375 122.79296875 C-11.62012371 126.90978208 -12.08671346 130.95544533 -13 135 C-13.66 135 -14.32 135 -15 135 C-15.06058594 135.60328125 -15.12117188 136.2065625 -15.18359375 136.828125 C-15.26738281 137.62734375 -15.35117187 138.4265625 -15.4375 139.25 C-15.51871094 140.03890625 -15.59992188 140.8278125 -15.68359375 141.640625 C-15.97634993 143.82364639 -16.42064419 145.8773182 -17 148 C-17.66 148 -18.32 148 -19 148 C-19.02578125 148.57105469 -19.0515625 149.14210937 -19.078125 149.73046875 C-19.70592783 158.70519554 -22.40604762 166.95307776 -25.625 175.3125 C-26.79409084 178.44778908 -27.6945925 181.51581222 -28.4609375 184.76953125 C-29.53344109 189.20720914 -30.78653299 193.59915965 -32 198 C-32.66 198 -33.32 198 -34 198 C-34.06058594 198.59167969 -34.12117188 199.18335938 -34.18359375 199.79296875 C-34.62012371 203.90978208 -35.08671346 207.95544533 -36 212 C-36.66 212 -37.32 212 -38 212 C-38.12375 213.19625 -38.2475 214.3925 -38.375 215.625 C-38.82762681 219.28481107 -39.73676132 222.52609364 -41 226 C-41.7670411 228.89905297 -42.41658876 231.82186903 -43.0625 234.75 C-43.23910156 235.54921875 -43.41570312 236.3484375 -43.59765625 237.171875 C-43.73042969 237.77515625 -43.86320312 238.3784375 -44 239 C-44.66 239 -45.32 239 -46 239 C-46.103125 240.134375 -46.20625 241.26875 -46.3125 242.4375 C-46.80861855 246.49272988 -47.93905492 250.10590851 -49.30078125 253.9453125 C-50.09123318 256.26809304 -50.60947095 258.5787199 -51 261 C-51.66 261 -52.32 261 -53 261 C-53.06058594 261.60328125 -53.12117188 262.2065625 -53.18359375 262.828125 C-53.26738281 263.62734375 -53.35117187 264.4265625 -53.4375 265.25 C-53.51871094 266.03890625 -53.59992188 266.8278125 -53.68359375 267.640625 C-53.97634993 269.82364639 -54.42064419 271.8773182 -55 274 C-55.66 274 -56.32 274 -57 274 C-57.04898437 274.66386719 -57.09796875 275.32773437 -57.1484375 276.01171875 C-57.5485036 280.73663736 -58.07158268 284.62892074 -60 289 C-60 290.32 -60 291.64 -60 293 C-60.66 293 -61.32 293 -62 293 C-62.12375 294.19625 -62.2475 295.3925 -62.375 296.625 C-62.83204464 300.29423164 -63.76289763 303.50700509 -65 307 C-65.71026484 309.65745348 -66.35448575 312.32572669 -67 315 C-67.66 315 -68.32 315 -69 315 C-69.33 317.64 -69.66 320.28 -70 323 C-70.66 323 -71.32 323 -72 323 C-72.04125 323.556875 -72.0825 324.11375 -72.125 324.6875 C-73.47099212 328.24476488 -75.67678251 330.31498831 -79 332 C-85.01173239 333.05229676 -89.7874997 332.25781269 -95 329 C-95.66 328.67 -96.32 328.34 -97 328 C-97 327.34 -97 326.68 -97 326 C-97.66 326 -98.32 326 -99 326 C-100.68816933 324.35511706 -102.35353315 322.68662458 -104 321 C-104.99 320.34 -105.98 319.68 -107 319 C-107 318.34 -107 317.68 -107 317 C-107.8353125 316.5978125 -107.8353125 316.5978125 -108.6875 316.1875 C-111.21225334 314.89100504 -113.63714484 313.57523677 -116 312 C-116 311.34 -116 310.68 -116 310 C-116.66 310 -117.32 310 -118 310 C-118.61875 309.21625 -119.2375 308.4325 -119.875 307.625 C-121.88852174 305.13770844 -123.08642859 304.14461734 -126 303 C-126 302.34 -126 301.68 -126 301 C-126.66 301 -127.32 301 -128 301 C-129.16214682 299.87203397 -130.31809354 298.73695775 -131.44140625 297.5703125 C-133.25474581 295.7433388 -135.13978028 294.02397118 -137.0625 292.3125 C-137.71347656 291.73113281 -138.36445313 291.14976562 -139.03515625 290.55078125 C-140.91603727 288.94660038 -140.91603727 288.94660038 -143.02734375 288.04296875 C-146.18892831 286.3713983 -147.99902897 283.61938236 -150.21875 280.875 C-152.06356035 278.93309436 -153.60198699 278.12421938 -156 277 C-157.66666667 275.33333333 -159.33333333 273.66666667 -161 272 C-161.99 271.67 -162.98 271.34 -164 271 C-169 265.53488372 -169 265.53488372 -169 263 C-170.423125 262.566875 -170.423125 262.566875 -171.875 262.125 C-175 261 -175 261 -177 259 C-177.40992188 259.5775 -177.81984375 260.155 -178.2421875 260.75 C-178.78101563 261.4925 -179.31984375 262.235 -179.875 263 C-180.40867187 263.7425 -180.94234375 264.485 -181.4921875 265.25 C-182.23855469 266.11625 -182.23855469 266.11625 -183 267 C-183.66 267 -184.32 267 -185 267 C-185.33 267.99 -185.66 268.98 -186 270 C-186.66 270 -187.32 270 -188 270 C-188 270.66 -188 271.32 -188 272 C-189.36328125 273.3046875 -189.36328125 273.3046875 -191.3125 274.875 C-194.98995465 277.99270049 -198.27636505 281.36108779 -201.5 284.9375 C-213.63310014 298.374312 -213.63310014 298.374312 -219 302 C-219.66 302 -220.32 302 -221 302 C-221.3403125 302.86625 -221.3403125 302.86625 -221.6875 303.75 C-223.34726345 306.59530878 -225.42066667 307.93653334 -228 310 C-229.06109547 311.19130823 -230.10078616 312.40183815 -231.125 313.625 C-237.87857159 321.45102717 -245.45572385 327.87039702 -254 333.625 C-254.97066406 334.28218018 -254.97066406 334.28218018 -255.9609375 334.95263672 C-260.61857618 338 -260.61857618 338 -264 338 C-264 338.66 -264 339.32 -264 340 C-264.81984375 340.4021875 -265.6396875 340.804375 -266.484375 341.21875 C-269.00289496 342.49480011 -271.48060236 343.79719706 -273.953125 345.15625 C-281.51193474 349.29401657 -288.59167307 352.9206845 -297 355 C-298.37898129 355.46758561 -299.7539626 355.94711022 -301.125 356.4375 C-310.77483827 359.68273031 -320.83233238 362.27373803 -331 363 C-331.1959375 363.55945313 -331.391875 364.11890625 -331.59375 364.6953125 C-334.55758621 372.64145957 -338.68083561 379.73635393 -343 387 C-343.4640625 387.82886719 -343.928125 388.65773438 -344.40625 389.51171875 C-346.4842603 392.75606325 -348.91785199 395.59245437 -351.4375 398.5 C-352.39516204 399.6140414 -353.35220313 400.72861691 -354.30859375 401.84375 C-354.7660498 402.37355469 -355.22350586 402.90335937 -355.69482422 403.44921875 C-356.91489329 404.89887808 -358.07161457 406.40119726 -359.22265625 407.90625 C-359.80917969 408.5971875 -360.39570313 409.288125 -361 410 C-361.66 410 -362.32 410 -363 410 C-363.268125 410.598125 -363.53625 411.19625 -363.8125 411.8125 C-364.99917406 413.99847854 -366.09599113 415.41332594 -368 417 C-368.66 417 -369.32 417 -370 417 C-370 417.66 -370 418.32 -370 419 C-371.8984375 420.7265625 -371.8984375 420.7265625 -374.375 422.625 C-375.59316406 423.57246094 -375.59316406 423.57246094 -376.8359375 424.5390625 C-379 426 -379 426 -381 426 C-381 426.66 -381 427.32 -381 428 C-386.50684094 431.2806712 -390.55827344 432.93508934 -397 432 C-399.37245357 430.54119344 -401.00815575 428.99184425 -403 427 C-402.52324274 421.43783198 -399.42224696 419.05406263 -395.31030273 415.56713867 C-393.49434171 414.08490846 -391.65841702 412.63221457 -389.8125 411.1875 C-389.18408203 410.68541016 -388.55566406 410.18332031 -387.90820312 409.66601562 C-383.24463223 406 -383.24463223 406 -381 406 C-381 405.34 -381 404.68 -381 404 C-379.49609375 402.58984375 -379.49609375 402.58984375 -377.4375 400.9375 C-373.55202888 397.65138347 -370.55267525 394.10482244 -367.54296875 390.015625 C-366 388 -366 388 -364.36328125 386.421875 C-362.73906268 384.93102467 -362.73906268 384.93102467 -362 382 C-361.13375 381.195625 -361.13375 381.195625 -360.25 380.375 C-355.61691841 375.48452499 -352.97557017 368.9856397 -350 363 C-351.18335938 362.74605469 -352.36671875 362.49210937 -353.5859375 362.23046875 C-369.47605804 358.7886747 -382.89531513 354.33458651 -397 346 C-397 345.34 -397 344.68 -397 344 C-398.0209375 343.690625 -398.0209375 343.690625 -399.0625 343.375 C-408.19751246 339.09903672 -416.86308261 329.12555307 -421 320 C-422.24999449 315.70835225 -423.16815117 311.38968875 -424 307 C-424.18433594 306.15695312 -424.36867188 305.31390625 -424.55859375 304.4453125 C-426.69722864 292.5976537 -423.89657559 280.40015282 -418 270 C-416.29153408 267.67684609 -414.44916821 265.4921448 -412.5625 263.3125 C-412.08490234 262.74466797 -411.60730469 262.17683594 -411.11523438 261.59179688 C-408.64173352 258.69756336 -406.28176204 255.97184428 -403 254 C-402.01 254 -401.02 254 -400 254 C-400 253.34 -400 252.68 -400 252 C-385.02904547 247.16787635 -374.94173213 247.84745906 -360 252 C-360 252.66 -360 253.32 -360 254 C-359.26523437 254.26683594 -358.53046875 254.53367187 -357.7734375 254.80859375 C-344.20719168 260.63634724 -335.46416586 275.44443358 -329.94140625 288.5234375 C-323.42017499 305.67887576 -321.92483141 324.81474377 -325 343 C-325.33 343.33 -325.66 343.66 -326 344 C-308.88551961 342.26374837 -292.71573161 335.64059302 -278 327 C-276.82326128 326.33662791 -275.64617198 325.67387737 -274.46875 325.01171875 C-271.18286908 323.13439822 -268.02194757 321.10344276 -264.875 319 C-263.88242187 318.34 -262.88984375 317.68 -261.8671875 317 C-258.96554344 315.03135099 -258.96554344 315.03135099 -256.2578125 312.75 C-254 311 -254 311 -252 311 C-252 310.34 -252 309.68 -252 309 C-250.52295788 307.74772516 -249.04172601 306.49833478 -247.5078125 305.31640625 C-245.73237056 303.88235909 -245.73237056 303.88235909 -244 301 C-243.83286431 298.37468476 -243.83286431 298.37468476 -244 296 C-244.66 296 -245.32 296 -246 296 C-246.12117187 295.20335937 -246.24234375 294.40671875 -246.3671875 293.5859375 C-247.22151376 288.18396684 -248.23047999 283.18216573 -250 278 C-250 276.33333333 -250 274.66666667 -250 273 C-250.33 271.88625 -250.66 270.7725 -251 269.625 C-252.02475024 265.91028037 -252.15640581 262.8319423 -252 259 C-252.66 259 -253.32 259 -254 259 C-254.98248524 254.9472484 -255.08159574 251.16138263 -255 247 C-255.66 246.67 -256.32 246.34 -257 246 C-256.95875 245.29875 -256.9175 244.5975 -256.875 243.875 C-257.018555 240.57323509 -257.88192226 238.10577151 -259 235 C-260.33431288 230.77467587 -261 227.39019833 -261 223 C-261.42994115 221.37945259 -261.86660438 219.7600065 -262.35546875 218.15625 C-263.17023361 215.4304912 -263.90617858 212.69014317 -264.625 209.9375 C-264.88539063 208.95652344 -265.14578125 207.97554687 -265.4140625 206.96484375 C-266.01948712 203.90139515 -266.10180597 201.11433719 -266 198 C-266.66 198 -267.32 198 -268 198 C-267.95875 197.13375 -267.9175 196.2675 -267.875 195.375 C-268.00603591 191.83703035 -268.8243565 189.31946401 -270 186 C-270.36920191 184.00630969 -270.71325582 182.00720923 -271 180 C-272.485 179.62875 -272.485 179.62875 -274 179.25 C-277.64840423 178.21925165 -280.86084749 176.67375083 -284.203125 174.90234375 C-286.15307193 173.86945308 -286.15307193 173.86945308 -289 173 C-289 172.34 -289 171.68 -289 171 C-292.96 170.01 -292.96 170.01 -297 169 C-297 168.34 -297 167.68 -297 167 C-298.98 166.67 -300.96 166.34 -303 166 C-303 165.34 -303 164.68 -303 164 C-305.64 163.34 -308.28 162.68 -311 162 C-311 161.34 -311 160.68 -311 160 C-311.65226562 159.81824219 -312.30453125 159.63648438 -312.9765625 159.44921875 C-317.92730011 158.02533404 -322.46546423 156.50592766 -327 154 C-327 153.34 -327 152.68 -327 152 C-329.64 151.34 -332.28 150.68 -335 150 C-335 149.34 -335 148.68 -335 148 C-337.31 147.67 -339.62 147.34 -342 147 C-342 146.34 -342 145.68 -342 145 C-344.64 144.34 -347.28 143.68 -350 143 C-350 142.34 -350 141.68 -350 141 C-351.051875 140.814375 -351.051875 140.814375 -352.125 140.625 C-355.17656387 139.96161655 -358.05340938 139.02788045 -361 138 C-361 137.34 -361 136.68 -361 136 C-362.03125 135.731875 -363.0625 135.46375 -364.125 135.1875 C-367.6531031 134.17639728 -370.80251308 132.82713539 -374 131 C-374.33 130.34 -374.66 129.68 -375 129 C-375.99 128.7834375 -375.99 128.7834375 -377 128.5625 C-377.66 128.376875 -378.32 128.19125 -379 128 C-380.01102038 124.96693887 -380.1982535 122.74059761 -380.25 119.5625 C-380.27578125 118.61503906 -380.3015625 117.66757813 -380.328125 116.69140625 C-379.94684003 113.5639617 -379.22971311 112.20366506 -377 110 C-376.01 110 -375.02 110 -374 110 C-373.67 109.34 -373.34 108.68 -373 108 C-370.890625 107.21875 -370.890625 107.21875 -368.25 106.5 C-365.56381911 105.74391797 -363.0166343 105.00689715 -360.4375 103.9375 C-355.21062901 101.927165 -349.61756136 100.63757669 -344 101 C-344 100.34 -344 99.68 -344 99 C-339.05 98.505 -339.05 98.505 -334 98 C-334 97.34 -334 96.68 -334 96 C-329.37269289 94.9551242 -324.71146122 94.48243721 -320 94 C-320 93.34 -320 92.68 -320 92 C-315.05 91.505 -315.05 91.505 -310 91 C-310 90.34 -310 89.68 -310 89 C-309.360625 88.87625 -308.72125 88.7525 -308.0625 88.625 C-307.051875 88.41875 -306.04125 88.2125 -305 88 C-304.00033203 87.79890625 -304.00033203 87.79890625 -302.98046875 87.59375 C-298.27194151 86.60421713 -293.80731585 85.30272003 -289.265625 83.72265625 C-286.21394395 82.74927523 -283.12085737 82.11949264 -279.98828125 81.46484375 C-277.54045172 80.8925614 -275.32333714 79.95316395 -273 79 C-265.51456311 76.74271845 -265.51456311 76.74271845 -263 78 C-263 77.34 -263 76.68 -263 76 C-258.545 75.505 -258.545 75.505 -254 75 C-254 74.34 -254 73.68 -254 73 C-250.7 72.67 -247.4 72.34 -244 72 C-244 71.34 -244 70.68 -244 70 C-243.42894531 69.90203125 -242.85789063 69.8040625 -242.26953125 69.703125 C-236.00803049 68.54838082 -230.03804481 66.85759059 -223.98046875 64.90234375 C-219.55304317 63.5619305 -215.62755852 62.86778404 -211 63 C-211 62.34 -211 61.68 -211 61 C-206.545 60.505 -206.545 60.505 -202 60 C-202 59.34 -202 58.68 -202 58 C-197.05738183 56.84672243 -192.04338661 56.46027023 -187 56 C-187 55.34 -187 54.68 -187 54 C-183.7 53.67 -180.4 53.34 -177 53 C-177 52.34 -177 51.68 -177 51 C-174.08500057 50.20439236 -171.25438581 49.74677501 -168.25 49.4375 C-167.45078125 49.35371094 -166.6515625 49.26992187 -165.828125 49.18359375 C-164.92320312 49.09271484 -164.92320312 49.09271484 -164 49 C-164 48.34 -164 47.68 -164 47 C-159.05 46.505 -159.05 46.505 -154 46 C-154 45.34 -154 44.68 -154 44 C-151.03 44 -148.06 44 -145 44 C-145 43.34 -145 42.68 -145 42 C-140.05 41.505 -140.05 41.505 -135 41 C-135 40.34 -135 39.68 -135 39 C-133.58461283 38.66127487 -132.16762037 38.32925376 -130.75 38 C-129.96109375 37.814375 -129.1721875 37.62875 -128.359375 37.4375 C-126 37 -126 37 -122 37 C-122 36.34 -122 35.68 -122 35 C-121.40832031 34.87882812 -120.81664062 34.75765625 -120.20703125 34.6328125 C-115.29788154 33.60942067 -115.29788154 33.60942067 -110.5625 32 C-107.22813402 30.69878401 -103.85758134 30.16166482 -100.34765625 29.5 C-97.74295695 28.94525539 -95.46051082 28.00944034 -93 27 C-88.34041729 25.74714719 -83.85566074 24.68673157 -79 25 C-79 24.34 -79 23.68 -79 23 C-78.40832031 22.87882812 -77.81664062 22.75765625 -77.20703125 22.6328125 C-72.27153809 21.59688434 -72.27153809 21.59688434 -67.5 20 C-63.78271244 18.51308498 -59.91404618 17.80156937 -56 17 C-56 16.67 -56 16.34 -56 16 C-52.7 15.67 -49.4 15.34 -46 15 C-46 14.34 -46 13.68 -46 13 C-39.565 12.01 -39.565 12.01 -33 11 C-33 10.34 -33 9.68 -33 9 C-31.98679687 8.80083984 -31.98679687 8.80083984 -30.953125 8.59765625 C-29.61507812 8.33275391 -29.61507812 8.33275391 -28.25 8.0625 C-26.92742187 7.80146484 -26.92742187 7.80146484 -25.578125 7.53515625 C-23.99195212 7.20590521 -22.41127524 6.84641963 -20.84375 6.4375 C-18.53162795 5.88886087 -16.36700321 5.93424991 -14 6 C-14 5.34 -14 4.68 -14 4 C-12.4176994 3.66179834 -10.83410625 3.32964061 -9.25 3 C-7.92742187 2.7215625 -7.92742187 2.7215625 -6.578125 2.4375 C-4 2 -4 2 0 2 C0 1.34 0 0.68 0 0 Z M-69 66 C-69 66.66 -69 67.32 -69 68 C-70.11375 68.1546875 -70.11375 68.1546875 -71.25 68.3125 C-74.1973519 69.04933797 -75.78383074 69.94799142 -78 72 C-78 72.66 -78 73.32 -78 74 C-78.78375 74.144375 -79.5675 74.28875 -80.375 74.4375 C-82.96421018 74.87798925 -82.96421018 74.87798925 -85 76 C-85 76.66 -85 77.32 -85 78 C-86.32 78.33 -87.64 78.66 -89 79 C-89 79.66 -89 80.32 -89 81 C-89.804375 81.04125 -90.60875 81.0825 -91.4375 81.125 C-95.7350765 82.1805451 -98.49434308 84.15492485 -102.046875 86.72265625 C-104 88 -104 88 -106 88 C-106 88.66 -106 89.32 -106 90 C-107.98 90.495 -107.98 90.495 -110 91 C-110 91.66 -110 92.32 -110 93 C-110.53625 93.103125 -111.0725 93.20625 -111.625 93.3125 C-114.62502044 94.18092697 -117.2379535 95.55620296 -120 97 C-120 97.99 -120 98.98 -120 100 C-120.70125 100.103125 -121.4025 100.20625 -122.125 100.3125 C-127.89136711 101.69141387 -132.90946373 105.04748896 -138 108 C-138 108.66 -138 109.32 -138 110 C-138.99 110 -139.98 110 -141 110 C-141 110.66 -141 111.32 -141 112 C-141.598125 112.144375 -142.19625 112.28875 -142.8125 112.4375 C-144.56150404 112.8872439 -146.28677023 113.42892341 -148 114 C-148.495 114.99 -148.495 114.99 -149 116 C-150.485 116.495 -150.485 116.495 -152 117 C-152 117.66 -152 118.32 -152 119 C-152.99 119 -153.98 119 -155 119 C-155 119.66 -155 120.32 -155 121 C-155.78375 121.144375 -156.5675 121.28875 -157.375 121.4375 C-159.96421018 121.87798925 -159.96421018 121.87798925 -162 123 C-162 123.66 -162 124.32 -162 125 C-163.65 125.33 -165.3 125.66 -167 126 C-167 126.66 -167 127.32 -167 128 C-167.9075 128.268125 -168.815 128.53625 -169.75 128.8125 C-172.74911053 129.90832885 -174.53826458 131.04758915 -177 133 C-178.485 133.495 -178.485 133.495 -180 134 C-180 134.66 -180 135.32 -180 136 C-180.99 136 -181.98 136 -183 136 C-183 136.66 -183 137.32 -183 138 C-183.5775 138.12375 -184.155 138.2475 -184.75 138.375 C-187.02335767 139.00648824 -188.9253529 139.88858191 -191 141 C-191 141.66 -191 142.32 -191 143 C-194.465 143.99 -194.465 143.99 -198 145 C-198 145.66 -198 146.32 -198 147 C-198.515625 147.0825 -199.03125 147.165 -199.5625 147.25 C-203.04455732 148.32140225 -205.87200885 150.13523605 -209 152 C-209 152.66 -209 153.32 -209 154 C-209.928125 154.2165625 -209.928125 154.2165625 -210.875 154.4375 C-213.03258322 154.93152225 -213.03258322 154.93152225 -215 156 C-215 156.66 -215 157.32 -215 158 C-215.598125 158.144375 -216.19625 158.28875 -216.8125 158.4375 C-218.56150404 158.8872439 -220.28677023 159.42892341 -222 160 C-222 160.66 -222 161.32 -222 162 C-223.32 162 -224.64 162 -226 162 C-226 162.66 -226 163.32 -226 164 C-226.99 164 -227.98 164 -229 164 C-229 164.66 -229 165.32 -229 166 C-230.98 166.495 -230.98 166.495 -233 167 C-233 167.66 -233 168.32 -233 169 C-233.8971875 169.2165625 -233.8971875 169.2165625 -234.8125 169.4375 C-236.56150404 169.8872439 -238.28677023 170.42892341 -240 171 C-240 171.66 -240 172.32 -240 173 C-241.98 173.495 -241.98 173.495 -244 174 C-244 174.66 -244 175.32 -244 176 C-244.5775 176.12375 -245.155 176.2475 -245.75 176.375 C-248.02335767 177.00648824 -249.9253529 177.88858191 -252 179 C-252 179.66 -252 180.32 -252 181 C-252.66 181 -253.32 181 -254 181 C-254.33 183.97 -254.66 186.94 -255 190 C-254.34 190 -253.68 190 -253 190 C-252.505 195.94 -252.505 195.94 -252 202 C-251.34 202 -250.68 202 -250 202 C-250.33 204.31 -250.66 206.62 -251 209 C-250.34 209 -249.68 209 -249 209 C-248.93941406 209.79664063 -248.87882813 210.59328125 -248.81640625 211.4140625 C-248.20332134 219.24332697 -248.20332134 219.24332697 -247 227 C-246.34 227 -245.68 227 -245 227 C-245.04125 227.928125 -245.0825 228.85625 -245.125 229.8125 C-245.125 237.13601665 -243.3209243 244.10809502 -241 251 C-238.74603492 259.57633715 -237.22108367 268.22256326 -236 277 C-235.67 277 -235.34 277 -235 277 C-234.49078672 274.81462633 -233.99305563 272.62657569 -233.5 270.4375 C-233.08234375 268.61025391 -233.08234375 268.61025391 -232.65625 266.74609375 C-232.01362446 263.07777293 -231.88525177 259.71497397 -232 256 C-231.34 255.67 -230.68 255.34 -230 255 C-230.33 253.35 -230.66 251.7 -231 250 C-230.34 249.67 -229.68 249.34 -229 249 C-229.04125 248.319375 -229.0825 247.63875 -229.125 246.9375 C-229 244 -229 244 -228 240.625 C-226.97524976 236.91028037 -226.84359419 233.8319423 -227 230 C-226.34 230 -225.68 230 -225 230 C-224.80664062 228.87980469 -224.61328125 227.75960937 -224.4140625 226.60546875 C-224.1514114 225.13274651 -223.88837017 223.66009381 -223.625 222.1875 C-223.49867188 221.44951172 -223.37234375 220.71152344 -223.2421875 219.95117188 C-222.59836518 216.39405354 -222.03003944 214.04505916 -220 211 C-220 210.01 -220 209.02 -220 208 C-219.34 208 -218.68 208 -218 208 C-216.33333333 206.66666667 -216.33333333 206.66666667 -215 205 C-215 204.34 -215 203.68 -215 203 C-214.360625 202.896875 -213.72125 202.79375 -213.0625 202.6875 C-212.381875 202.460625 -211.70125 202.23375 -211 202 C-210.67 201.01 -210.34 200.02 -210 199 C-208.66666667 198.33333333 -207.33333333 197.66666667 -206 197 C-203.24958334 194.58333229 -203.24958334 194.58333229 -201 192 C-201 191.34 -201 190.68 -201 190 C-200.41863281 189.73574219 -199.83726562 189.47148437 -199.23828125 189.19921875 C-192.83121641 185.76646324 -186.67433905 179.53617032 -182 174 C-182 173.34 -182 172.68 -182 172 C-180.515 172.495 -180.515 172.495 -179 173 C-177.62437146 171.71034824 -176.29233607 170.37310707 -175 169 C-175 168.34 -175 167.68 -175 167 C-174.01 166.67 -173.02 166.34 -172 166 C-170.78131294 164.51781304 -169.56504598 163.03343322 -168.37109375 161.53125 C-167 160 -167 160 -164.25 158.1875 C-159.61355014 155.0668126 -155.66468635 151.21846118 -152 147 C-152 146.34 -152 145.68 -152 145 C-151.01 144.67 -150.02 144.34 -149 144 C-149 143.34 -149 142.68 -149 142 C-148.2575 141.731875 -147.515 141.46375 -146.75 141.1875 C-144.10938051 140.04723249 -142.14447156 138.90619694 -140 137 C-140 136.34 -140 135.68 -140 135 C-139.34 135 -138.68 135 -138 135 C-136.36738126 133.30910787 -136.36738126 133.30910787 -134.6875 131.1875 C-132.02432354 128.02846014 -129.65197184 125.99198464 -126 124 C-126 123.34 -126 122.68 -126 122 C-125.360625 121.731875 -124.72125 121.46375 -124.0625 121.1875 C-121.66868314 120.11332248 -121.66868314 120.11332248 -121 117 C-120.01 116.67 -119.02 116.34 -118 116 C-118 115.34 -118 114.68 -118 114 C-117.01 113.67 -116.02 113.34 -115 113 C-115 112.34 -115 111.68 -115 111 C-114.25274658 110.74025391 -113.50549316 110.48050781 -112.7355957 110.21289062 C-109.92955058 108.9687646 -108.37921905 107.75313626 -106.23046875 105.59375 C-105.56982422 104.93246094 -104.90917969 104.27117187 -104.22851562 103.58984375 C-103.55498047 102.90019531 -102.88144531 102.21054688 -102.1875 101.5 C-101.49462891 100.81035156 -100.80175781 100.12070313 -100.08789062 99.41015625 C-96.40178725 96.24165696 -96.40178725 96.24165696 -95 92 C-94.24976563 91.91492188 -93.49953125 91.82984375 -92.7265625 91.7421875 C-89.44140012 90.84794559 -88.48083671 89.75008412 -86.375 87.125 C-80.62394705 80.07280385 -80.62394705 80.07280385 -76 78 C-76 77.34 -76 76.68 -76 76 C-75.4225 75.7525 -74.845 75.505 -74.25 75.25 C-71.67060021 73.81700012 -69.93878408 72.21575324 -68 70 C-68 69.34 -68 68.68 -68 68 C-67.34 68 -66.68 68 -66 68 C-65.67 67.01 -65.34 66.02 -65 65 C-67.0745356 64.8509288 -67.0745356 64.8509288 -69 66 Z M-398.1875 272.0625 C-405.86932652 281.90615202 -407.87126815 291.79317018 -407 304 C-406.03142043 310.34562055 -404.95392316 316.52548876 -400 321 C-399.34 321 -398.68 321 -398 321 C-397.67 321.99 -397.34 322.98 -397 324 C-393.94491974 327.03277199 -393.94491974 327.03277199 -390 328 C-390 328.66 -390 329.32 -390 330 C-377.62264641 339.09547954 -359.46249829 346 -344 346 C-342.14866671 338.401864 -341.61524757 331.11960879 -341.625 323.3125 C-341.62443604 322.17288818 -341.62387207 321.03327637 -341.62329102 319.85913086 C-341.73863614 310.9851198 -342.95290821 303.33361248 -346 295 C-346.495 293.515 -346.495 293.515 -347 292 C-347.66 292 -348.32 292 -349 292 C-349.04125 291.195625 -349.0825 290.39125 -349.125 289.5625 C-351.41232856 280.24980516 -358.25021842 274.16652105 -366 269 C-375.50432643 263.36920621 -390.4270126 263.75329127 -398.1875 272.0625 Z " fill="#0C8AFE" transform="translate(467,30)"/>
<path d="M0 0 C1.32 0 2.64 0 4 0 C4 0.66 4 1.32 4 2 C4.56847656 2.2475 5.13695312 2.495 5.72265625 2.75 C8.36611659 4.20095593 10.24491353 5.9294293 12.4375 8 C16.36563567 11.60320864 20.39424676 14.95416662 24.625 18.1875 C25.17486572 18.61281006 25.72473145 19.03812012 26.29125977 19.47631836 C28.68483763 21.31155002 31.08120862 23.05069532 33.640625 24.6484375 C35.75220653 25.98478805 37.42659706 27.05866283 39 29 C39.71020563 33.34523663 38.68555963 36.77791544 36.5625 40.5625 C35 42 35 42 33 42 C32.67 42.99 32.34 43.98 32 45 C31.34 45 30.68 45 30 45 C30 45.66 30 46.32 30 47 C28.63671875 48.3046875 28.63671875 48.3046875 26.6875 49.875 C23.01004535 52.99270049 19.72363495 56.36108779 16.5 59.9375 C4.36689986 73.374312 4.36689986 73.374312 -1 77 C-1.66 77 -2.32 77 -3 77 C-3.309375 77.639375 -3.61875 78.27875 -3.9375 78.9375 C-5 81 -5 81 -6 82 C-7.51928038 82.07179964 -9.04167482 82.08392007 -10.5625 82.0625 C-11.80193359 82.04896484 -11.80193359 82.04896484 -13.06640625 82.03515625 C-14.02353516 82.01775391 -14.02353516 82.01775391 -15 82 C-15.18997941 76.25840015 -15.25131199 70.99025002 -13.640625 65.421875 C-12.73597808 62.00186837 -12.08871316 58.53762832 -11.4375 55.0625 C-11.24087769 54.01485474 -11.24087769 54.01485474 -11.0402832 52.94604492 C-10.3504674 49.18063419 -9.76383405 45.43310493 -9.375 41.625 C-9 38 -9 38 -8 36 C-7.65425841 33.83838869 -7.34795419 31.67039549 -7.0625 29.5 C-6.36269949 24.41996669 -5.56295827 19.40645933 -4.5 14.390625 C-4.14158029 12.67693075 -3.81147486 10.95722034 -3.5 9.234375 C-3.335 8.33203125 -3.17 7.4296875 -3 6.5 C-2.855625 5.6853125 -2.71125 4.870625 -2.5625 4.03125 C-2 2 -2 2 0 0 Z " fill="#0D42B1" transform="translate(249,255)"/>
<path d="M0 0 C1.671875 1.203125 1.671875 1.203125 3 3 C3.29296875 5.69921875 3.29296875 5.69921875 3.1875 8.6875 C3.16042969 9.68136719 3.13335937 10.67523438 3.10546875 11.69921875 C3.07066406 12.45847656 3.03585938 13.21773438 3 14 C1.33674462 14.71282373 -0.32684686 15.42487417 -1.9921875 16.1328125 C-3.2957014 16.69580877 -4.59313237 17.27318545 -5.8828125 17.8671875 C-9.24880028 19.39718195 -11.2219607 20 -15 20 C-15 19.34 -15 18.68 -15 18 C-17.475 17.01 -17.475 17.01 -20 16 C-20 15.01 -20 14.02 -20 13 C-20.66 13 -21.32 13 -22 13 C-22 11.02 -22 9.04 -22 7 C-21.34 7 -20.68 7 -20 7 C-19.95101563 6.38769531 -19.90203125 5.77539062 -19.8515625 5.14453125 C-19 3 -19 3 -16.5234375 1.69921875 C-5.63697811 -1.79903557 -5.63697811 -1.79903557 0 0 Z " fill="#0C8BFF" transform="translate(45,462)"/>
<path d="M0 0 C0.66 0.33 1.32 0.66 2 1 C1.25556641 1.72703125 1.25556641 1.72703125 0.49609375 2.46875 C-2.96222905 5.88113682 -6.33306558 9.31377611 -9.5 13 C-13.1227364 17.21676477 -17.02456645 21.11749866 -21 25 C-21.66 24.67 -22.32 24.34 -23 24 C-15.70145063 15.62018405 -7.90434298 7.8031494 0 0 Z " fill="#1751BE" transform="translate(275,302)"/>
<path d="M0 0 C0.33 0 0.66 0 1 0 C1.23828125 2.29296875 1.23828125 2.29296875 1 5 C-0.64453125 6.80078125 -0.64453125 6.80078125 -2.8125 8.3125 C-3.52019531 8.82425781 -4.22789062 9.33601562 -4.95703125 9.86328125 C-7 11 -7 11 -10 11 C-10 10.34 -10 9.68 -10 9 C-9.34 9 -8.68 9 -8 9 C-7.67 8.01 -7.34 7.02 -7 6 C-6.34 6 -5.68 6 -5 6 C-5 5.34 -5 4.68 -5 4 C-4.360625 3.71125 -3.72125 3.4225 -3.0625 3.125 C-0.84793921 2.17176549 -0.84793921 2.17176549 0 0 Z " fill="#1387FE" transform="translate(257,229)"/>
<path d="M0 0 C0.99 0.33 1.98 0.66 3 1 C0.18020225 5.66351166 -2.60417387 8.75091112 -7 12 C-7.66 12 -8.32 12 -9 12 C-7.32598022 8.04322598 -4.86850715 5.15535787 -2 2 C-1.34 2 -0.68 2 0 2 C0 1.34 0 0.68 0 0 Z " fill="#047DFE" transform="translate(401,96)"/>
<path d="M0 0 C0.66 0.33 1.32 0.66 2 1 C1.34 3.97 0.68 6.94 0 10 C-1.32 10.33 -2.64 10.66 -4 11 C-3.74438677 8.6568787 -3.40729228 6.32156597 -3 4 C-2.34 3.67 -1.68 3.34 -1 3 C-0.67 2.01 -0.34 1.02 0 0 Z " fill="#1C8CFE" transform="translate(402,327)"/>
<path d="M0 0 C0.99 0 1.98 0 3 0 C2.01 3.96 1.02 7.92 0 12 C-0.99 12 -1.98 12 -3 12 C-3 11.01 -3 10.02 -3 9 C-2.34 9 -1.68 9 -1 9 C-0.67 6.03 -0.34 3.06 0 0 Z " fill="#248DFE" transform="translate(459,135)"/>
<path d="M0 0 C0.66 0.33 1.32 0.66 2 1 C1.16855469 1.81404297 1.16855469 1.81404297 0.3203125 2.64453125 C-0.76636719 3.71767578 -0.76636719 3.71767578 -1.875 4.8125 C-2.59429687 5.52019531 -3.31359375 6.22789062 -4.0546875 6.95703125 C-6.15358937 9.04399194 -6.15358937 9.04399194 -8 12 C-8.66 12 -9.32 12 -10 12 C-8.52278578 8.54798361 -6.56205999 6.35038064 -3.875 3.75 C-3.15054687 3.04359375 -2.42609375 2.3371875 -1.6796875 1.609375 C-1.12539063 1.07828125 -0.57109375 0.5471875 0 0 Z " fill="#1F5FCA" transform="translate(275,302)"/>
<path d="M0 0 C0.66 0.33 1.32 0.66 2 1 C0.625 2.5 0.625 2.5 -1 4 C-1.66 4 -2.32 4 -3 4 C-3.268125 4.639375 -3.53625 5.27875 -3.8125 5.9375 C-5 8 -5 8 -8 9 C-6.4169423 4.7257442 -3.49431596 2.73468206 0 0 Z " fill="#1D79EC" transform="translate(249,328)"/>
<path d="M0 0 C0.99 0.66 1.98 1.32 3 2 C1.8803014 3.00593243 0.7540588 4.0045849 -0.375 5 C-1.00148438 5.556875 -1.62796875 6.11375 -2.2734375 6.6875 C-4 8 -4 8 -6 8 C-4.55746343 4.63408134 -2.66735273 2.48952921 0 0 Z " fill="#057EFF" transform="translate(280,208)"/>
<path d="M0 0 C-0.66 1.32 -1.32 2.64 -2 4 C-3.98 4 -5.96 4 -8 4 C-8 3.01 -8 2.02 -8 1 C-5.23735711 0.40267181 -2.83967231 0 0 0 Z " fill="#208DFE" transform="translate(131,128)"/>
<path d="M0 0 C0.66 0.99 1.32 1.98 2 3 C-1.25179812 5.21713508 -4.4213696 7.34832443 -8 9 C-7.67 8.01 -7.34 7.02 -7 6 C-6.34 6 -5.68 6 -5 6 C-4.67 5.01 -4.34 4.02 -4 3 C-3.01 2.67 -2.02 2.34 -1 2 C-0.67 1.34 -0.34 0.68 0 0 Z " fill="#2D91FE" transform="translate(391,106)"/>
<path d="M0 0 C-0.33 1.32 -0.66 2.64 -1 4 C-2.98 4 -4.96 4 -7 4 C-7 3.01 -7 2.02 -7 1 C-2.25 0 -2.25 0 0 0 Z " fill="#218CFE" transform="translate(154,121)"/>
<path d="M0 0 C2.88575819 0.39803561 3.82189513 0.79009069 5.75 3.0625 C6.1625 3.701875 6.575 4.34125 7 5 C6.01 5.495 6.01 5.495 5 6 C2.9375 5.3125 2.9375 5.3125 1 4 C0.25 1.875 0.25 1.875 0 0 Z " fill="#1E8AFE" transform="translate(340,329)"/>
<path d="M0 0 C0.66 0.66 1.32 1.32 2 2 C-1.465 4.97 -1.465 4.97 -5 8 C-3.95206337 3.80825346 -3.08236365 2.78407039 0 0 Z M2 0 C4 1 4 1 4 1 Z " fill="#047FFE" transform="translate(263,224)"/>
<path d="M0 0 C0.99 0.33 1.98 0.66 3 1 C3 1.66 3 2.32 3 3 C0.69 4.32 -1.62 5.64 -4 7 C-3.43628586 3.73045798 -2.50037734 2.17424117 0 0 Z " fill="#057DFE" transform="translate(382,114)"/>
<path d="M0 0 C0.33 0.99 0.66 1.98 1 3 C0.34 3 -0.32 3 -1 3 C-1.33 3.99 -1.66 4.98 -2 6 C-2.66 6 -3.32 6 -4 6 C-4 6.66 -4 7.32 -4 8 C-4.99 7.67 -5.98 7.34 -7 7 C-4.69 4.69 -2.38 2.38 0 0 Z " fill="#0B49BB" transform="translate(283,294)"/>
<path d="M0 0 C0.99 0.33 1.98 0.66 3 1 C2.0479279 2.00596297 1.08812654 3.00461563 0.125 4 C-0.40867188 4.556875 -0.94234375 5.11375 -1.4921875 5.6875 C-3 7 -3 7 -5 7 C-5 6.34 -5 5.68 -5 5 C-4.34 5 -3.68 5 -3 5 C-2.67 4.01 -2.34 3.02 -2 2 C-1.34 2 -0.68 2 0 2 C0 1.34 0 0.68 0 0 Z " fill="#3B96FE" transform="translate(252,233)"/>
<path d="M0 0 C1.32 0 2.64 0 4 0 C3.67 1.65 3.34 3.3 3 5 C2.01 5 1.02 5 0 5 C-0.33 4.34 -0.66 3.68 -1 3 C-0.67 2.01 -0.34 1.02 0 0 Z " fill="#2891FE" transform="translate(441,191)"/>
<path d="M0 0 C0.66 0.66 1.32 1.32 2 2 C0.37660195 3.70884005 -1.29319053 5.37446717 -3 7 C-3.66 7 -4.32 7 -5 7 C-3.70700306 4.11562221 -2.34058637 2.12780579 0 0 Z " fill="#067DFE" transform="translate(313,178)"/>
<path d="M0 0 C0.99 0.33 1.98 0.66 3 1 C2.67 2.65 2.34 4.3 2 6 C1.01 5.67 0.02 5.34 -1 5 C-0.67 3.35 -0.34 1.7 0 0 Z " fill="#2290FE" transform="translate(235,291)"/>
<path d="M0 0 C2.9375 0.75 2.9375 0.75 6 2 C6.875 4.125 6.875 4.125 7 6 C2.32307692 4.52307692 2.32307692 4.52307692 0.6875 1.875 C0.460625 1.25625 0.23375 0.6375 0 0 Z " fill="#298FFE" transform="translate(290,287)"/>
<path d="M0 0 C1.65 0 3.3 0 5 0 C5 1.65 5 3.3 5 5 C2.5 3.625 2.5 3.625 0 2 C0 1.34 0 0.68 0 0 Z " fill="#238EFE" transform="translate(142,182)"/>
<path d="M0 0 C0.99 0.33 1.98 0.66 3 1 C1.37660195 2.70884005 -0.29319053 4.37446717 -2 6 C-2.66 6 -3.32 6 -4 6 C-2.84826645 3.53199953 -1.95216435 1.95216435 0 0 Z " fill="#3794FE" transform="translate(337,155)"/>
<path d="M0 0 C0.33 0.99 0.66 1.98 1 3 C-0.65 4.32 -2.3 5.64 -4 7 C-3.43628586 3.73045798 -2.50037734 2.17424117 0 0 Z " fill="#027BFE" transform="translate(364,131)"/>
<path d="M0 0 C0.66 0 1.32 0 2 0 C2 0.99 2 1.98 2 3 C1.34 3 0.68 3 0 3 C0 2.01 0 1.02 0 0 Z " fill="#3091FE" transform="translate(455,160)"/>
<path d="" fill="#0C8BFF" transform="translate(0,0)"/>
</svg>
