<?xml version="1.0" encoding="UTF-8"?>
<svg version="1.1" xmlns="http://www.w3.org/2000/svg" width="512" height="512">
<path d="M0 0 C0.680625 -0.00386719 1.36125 -0.00773437 2.0625 -0.01171875 C7.12155878 -0.00172061 7.12155878 -0.00172061 9.375 1.125 C9.375 1.785 9.375 2.445 9.375 3.125 C10.035 3.125 10.695 3.125 11.375 3.125 C13.72369747 5.09790587 14.37602287 6.12806862 15.375 9.125 C15.53395578 13.97315131 15.33003889 18.34980555 14.375 23.125 C13.715 23.125 13.055 23.125 12.375 23.125 C12.045 25.765 11.715 28.405 11.375 31.125 C10.715 31.125 10.055 31.125 9.375 31.125 C9.375 32.775 9.375 34.425 9.375 36.125 C10.035 36.125 10.695 36.125 11.375 36.125 C11.375 35.465 11.375 34.805 11.375 34.125 C16.325 33.63 16.325 33.63 21.375 33.125 C21.375 32.465 21.375 31.805 21.375 31.125 C24.675 30.795 27.975 30.465 31.375 30.125 C31.375 29.465 31.375 28.805 31.375 28.125 C32.035 28.125 32.695 28.125 33.375 28.125 C33.045 29.775 32.715 31.425 32.375 33.125 C31.68792969 33.24617188 31.00085938 33.36734375 30.29296875 33.4921875 C28.94138672 33.74355469 28.94138672 33.74355469 27.5625 34 C26.22251953 34.24363281 26.22251953 34.24363281 24.85546875 34.4921875 C22.14772154 35.03688449 22.14772154 35.03688449 19.375 37.125 C16.7083581 38.45832095 15.20819697 37.79602033 12.375 37.125 C12.375 37.785 12.375 38.445 12.375 39.125 C11.385 38.795 10.395 38.465 9.375 38.125 C9.045 39.115 8.715 40.105 8.375 41.125 C7.715 41.125 7.055 41.125 6.375 41.125 C6.31441406 41.80046875 6.25382812 42.4759375 6.19140625 43.171875 C6.10761719 44.06390625 6.02382813 44.9559375 5.9375 45.875 C5.85628906 46.75671875 5.77507812 47.6384375 5.69140625 48.546875 C5.41261535 50.81850452 4.98709423 52.92351823 4.375 55.125 C3.715 55.125 3.055 55.125 2.375 55.125 C2.045 58.425 1.715 61.725 1.375 65.125 C0.715 65.125 0.055 65.125 -0.625 65.125 C-0.955 68.095 -1.285 71.065 -1.625 74.125 C-2.285 74.125 -2.945 74.125 -3.625 74.125 C-3.68558594 74.80046875 -3.74617188 75.4759375 -3.80859375 76.171875 C-3.89238281 77.06390625 -3.97617187 77.9559375 -4.0625 78.875 C-4.14371094 79.75671875 -4.22492188 80.6384375 -4.30859375 81.546875 C-4.58738465 83.81850452 -5.01290577 85.92351823 -5.625 88.125 C-6.285 88.125 -6.945 88.125 -7.625 88.125 C-7.955 91.425 -8.285 94.725 -8.625 98.125 C-9.285 98.125 -9.945 98.125 -10.625 98.125 C-10.955 101.425 -11.285 104.725 -11.625 108.125 C-12.285 108.125 -12.945 108.125 -13.625 108.125 C-13.68558594 108.70507812 -13.74617188 109.28515625 -13.80859375 109.8828125 C-14.28516561 114.32592863 -14.83508666 118.72405423 -15.625 123.125 C-16.285 123.125 -16.945 123.125 -17.625 123.125 C-17.74875 124.32125 -17.8725 125.5175 -18 126.75 C-18.45262681 130.40981107 -19.36176132 133.65109364 -20.625 137.125 C-20.97476758 138.45411682 -21.31596017 139.78582739 -21.625 141.125 C-22.285 141.125 -22.945 141.125 -23.625 141.125 C-23.68558594 141.80046875 -23.74617188 142.4759375 -23.80859375 143.171875 C-23.89238281 144.06390625 -23.97617187 144.9559375 -24.0625 145.875 C-24.14371094 146.75671875 -24.22492188 147.6384375 -24.30859375 148.546875 C-24.58738465 150.81850452 -25.01290577 152.92351823 -25.625 155.125 C-26.285 155.125 -26.945 155.125 -27.625 155.125 C-27.955 158.425 -28.285 161.725 -28.625 165.125 C-29.285 165.125 -29.945 165.125 -30.625 165.125 C-30.955 168.425 -31.285 171.725 -31.625 175.125 C-32.285 175.125 -32.945 175.125 -33.625 175.125 C-33.68558594 175.71667969 -33.74617188 176.30835938 -33.80859375 176.91796875 C-34.24512371 181.03478208 -34.71171346 185.08044533 -35.625 189.125 C-36.285 189.125 -36.945 189.125 -37.625 189.125 C-37.955 192.095 -38.285 195.065 -38.625 198.125 C-39.285 198.125 -39.945 198.125 -40.625 198.125 C-40.955 201.425 -41.285 204.725 -41.625 208.125 C-42.285 208.125 -42.945 208.125 -43.625 208.125 C-43.68558594 208.71667969 -43.74617188 209.30835938 -43.80859375 209.91796875 C-44.24512371 214.03478208 -44.71171346 218.08044533 -45.625 222.125 C-46.285 222.125 -46.945 222.125 -47.625 222.125 C-47.955 225.095 -48.285 228.065 -48.625 231.125 C-49.285 231.125 -49.945 231.125 -50.625 231.125 C-50.955 234.425 -51.285 237.725 -51.625 241.125 C-52.285 241.125 -52.945 241.125 -53.625 241.125 C-53.68558594 241.80046875 -53.74617188 242.4759375 -53.80859375 243.171875 C-53.89238281 244.06390625 -53.97617187 244.9559375 -54.0625 245.875 C-54.14371094 246.75671875 -54.22492188 247.6384375 -54.30859375 248.546875 C-54.58738465 250.81850452 -55.01290577 252.92351823 -55.625 255.125 C-56.285 255.125 -56.945 255.125 -57.625 255.125 C-57.955 258.425 -58.285 261.725 -58.625 265.125 C-59.285 265.125 -59.945 265.125 -60.625 265.125 C-60.68558594 265.71667969 -60.74617188 266.30835938 -60.80859375 266.91796875 C-61.24512371 271.03478208 -61.71171346 275.08044533 -62.625 279.125 C-63.285 279.125 -63.945 279.125 -64.625 279.125 C-64.955 282.095 -65.285 285.065 -65.625 288.125 C-66.285 288.125 -66.945 288.125 -67.625 288.125 C-67.955 291.425 -68.285 294.725 -68.625 298.125 C-69.285 298.125 -69.945 298.125 -70.625 298.125 C-70.68558594 298.80046875 -70.74617188 299.4759375 -70.80859375 300.171875 C-70.89238281 301.06390625 -70.97617187 301.9559375 -71.0625 302.875 C-71.14371094 303.75671875 -71.22492188 304.6384375 -71.30859375 305.546875 C-71.58738465 307.81850452 -72.01290577 309.92351823 -72.625 312.125 C-73.285 312.125 -73.945 312.125 -74.625 312.125 C-74.955 315.425 -75.285 318.725 -75.625 322.125 C-76.285 322.125 -76.945 322.125 -77.625 322.125 C-77.955 325.425 -78.285 328.725 -78.625 332.125 C-79.285 332.125 -79.945 332.125 -80.625 332.125 C-80.769375 333.218125 -80.91375 334.31125 -81.0625 335.4375 C-81.625 339.125 -81.625 339.125 -82.625 342.125 C-83.285 342.125 -83.945 342.125 -84.625 342.125 C-84.955 343.115 -85.285 344.105 -85.625 345.125 C-86.285 345.125 -86.945 345.125 -87.625 345.125 C-87.625 345.785 -87.625 346.445 -87.625 347.125 C-90.84782413 348.19927471 -93.24011153 348.2582963 -96.625 348.25 C-97.676875 348.25257813 -98.72875 348.25515625 -99.8125 348.2578125 C-102.625 348.125 -102.625 348.125 -105.625 347.125 C-105.625 346.465 -105.625 345.805 -105.625 345.125 C-106.346875 345.08375 -107.06875 345.0425 -107.8125 345 C-111.73160527 343.78072281 -113.12215654 341.28648648 -115.625 338.125 C-116.615 337.795 -117.605 337.465 -118.625 337.125 C-118.625 336.465 -118.625 335.805 -118.625 335.125 C-119.615 334.795 -120.605 334.465 -121.625 334.125 C-122.24375 333.320625 -122.8625 332.51625 -123.5 331.6875 C-125.40537026 328.9621379 -125.40537026 328.9621379 -128.25 328.125 C-129.03375 327.795 -129.8175 327.465 -130.625 327.125 C-131.0890625 325.8875 -131.0890625 325.8875 -131.5625 324.625 C-132.42854352 321.7804134 -132.42854352 321.7804134 -135.75 320.8125 C-137.173125 320.4721875 -137.173125 320.4721875 -138.625 320.125 C-138.625 319.465 -138.625 318.805 -138.625 318.125 C-139.615 317.795 -140.605 317.465 -141.625 317.125 C-142.223125 316.361875 -142.82125 315.59875 -143.4375 314.8125 C-145.54751527 311.95017736 -145.54751527 311.95017736 -148.8125 310 C-151.625 308.125 -151.625 308.125 -152.625 305.125 C-153.615 304.795 -154.605 304.465 -155.625 304.125 C-155.625 303.465 -155.625 302.805 -155.625 302.125 C-156.346875 302.08375 -157.06875 302.0425 -157.8125 302 C-161.85543784 300.74219712 -163.05848183 298.45453708 -165.625 295.125 C-166.285 294.795 -166.945 294.465 -167.625 294.125 C-167.625 293.465 -167.625 292.805 -167.625 292.125 C-168.2025 292.063125 -168.78 292.00125 -169.375 291.9375 C-172.50876276 290.80586345 -173.57347393 288.71957708 -175.625 286.125 C-177.59821053 284.7523318 -179.60043152 283.42072383 -181.625 282.125 C-183.73780937 280.54039297 -185.66068865 278.90223408 -187.625 277.125 C-187.625 276.465 -187.625 275.805 -187.625 275.125 C-188.24375 275.00125 -188.8625 274.8775 -189.5 274.75 C-191.625 274.125 -191.625 274.125 -193.625 272.125 C-194.285 273.115 -194.945 274.105 -195.625 275.125 C-196.285 275.125 -196.945 275.125 -197.625 275.125 C-197.955 276.115 -198.285 277.105 -198.625 278.125 C-200.5625 280.3125 -200.5625 280.3125 -202.625 282.125 C-203.285 282.125 -203.945 282.125 -204.625 282.125 C-204.955 283.115 -205.285 284.105 -205.625 285.125 C-206.285 285.125 -206.945 285.125 -207.625 285.125 C-207.955 286.115 -208.285 287.105 -208.625 288.125 C-210.5625 290.3125 -210.5625 290.3125 -212.625 292.125 C-213.285 292.125 -213.945 292.125 -214.625 292.125 C-214.955 293.115 -215.285 294.105 -215.625 295.125 C-216.285 295.125 -216.945 295.125 -217.625 295.125 C-218.285 296.445 -218.945 297.765 -219.625 299.125 C-220.285 299.125 -220.945 299.125 -221.625 299.125 C-221.955 300.115 -222.285 301.105 -222.625 302.125 C-223.285 302.125 -223.945 302.125 -224.625 302.125 C-224.955 303.115 -225.285 304.105 -225.625 305.125 C-226.285 305.125 -226.945 305.125 -227.625 305.125 C-227.91375 305.90875 -228.2025 306.6925 -228.5 307.5 C-229.625 310.125 -229.625 310.125 -231.625 312.125 C-232.615 312.125 -233.605 312.125 -234.625 312.125 C-234.625 313.115 -234.625 314.105 -234.625 315.125 C-235.615 315.125 -236.605 315.125 -237.625 315.125 C-238.285 316.445 -238.945 317.765 -239.625 319.125 C-240.285 319.125 -240.945 319.125 -241.625 319.125 C-241.955 320.115 -242.285 321.105 -242.625 322.125 C-243.615 322.125 -244.605 322.125 -245.625 322.125 C-245.625 322.785 -245.625 323.445 -245.625 324.125 C-246.285 324.125 -246.945 324.125 -247.625 324.125 C-247.9653125 325.2078125 -247.9653125 325.2078125 -248.3125 326.3125 C-249.90434968 329.72360646 -251.87425528 331.56180605 -254.625 334.125 C-255.68875396 335.22795865 -256.75124625 336.33213546 -257.8125 337.4375 C-260.625 340.125 -260.625 340.125 -262.625 340.125 C-262.625 340.785 -262.625 341.445 -262.625 342.125 C-264.57447427 343.6315489 -266.51483364 345.0136518 -268.5625 346.375 C-269.15353516 346.77396484 -269.74457031 347.17292969 -270.35351562 347.58398438 C-271.5488684 348.38997143 -272.74596564 349.19337755 -273.94482422 349.99414062 C-275.41435112 350.98322063 -276.86691704 351.99740616 -278.31640625 353.015625 C-279.07824219 353.54671875 -279.84007812 354.0778125 -280.625 354.625 C-281.285 355.0890625 -281.945 355.553125 -282.625 356.03125 C-284.93705608 357.29565567 -287.03240106 357.72890849 -289.625 358.125 C-289.625 358.785 -289.625 359.445 -289.625 360.125 C-299.85863011 365.04402491 -310.07089524 369.92320908 -320.625 374.125 C-321.32367188 374.43179687 -322.02234375 374.73859375 -322.7421875 375.0546875 C-328.24652222 377.3757925 -333.69250007 377.80874541 -339.625 378.125 C-339.625 378.785 -339.625 379.445 -339.625 380.125 C-345.235 380.455 -350.845 380.785 -356.625 381.125 C-356.955 382.775 -357.285 384.425 -357.625 386.125 C-358.27646849 388.46262223 -358.94026605 390.79690457 -359.625 393.125 C-360.285 393.125 -360.945 393.125 -361.625 393.125 C-361.893125 393.82625 -362.16125 394.5275 -362.4375 395.25 C-363.69474766 398.29386276 -365.12845879 401.19177922 -366.625 404.125 C-367.181875 405.23875 -367.73875 406.3525 -368.3125 407.5 C-368.745625 408.36625 -369.17875 409.2325 -369.625 410.125 C-370.285 410.125 -370.945 410.125 -371.625 410.125 C-371.7178125 410.9603125 -371.7178125 410.9603125 -371.8125 411.8125 C-372.95454865 415.06294615 -375.18127057 416.74087372 -377.625 419.125 C-378.30768138 420.45020503 -378.9757041 421.78312182 -379.625 423.125 C-381.625 425.375 -381.625 425.375 -383.625 427.125 C-384.285 427.125 -384.945 427.125 -385.625 427.125 C-385.851875 427.66125 -386.07875 428.1975 -386.3125 428.75 C-389.11594878 433.82290732 -392.89916462 437.8041427 -397.625 441.125 C-398.285 441.125 -398.945 441.125 -399.625 441.125 C-399.625 441.785 -399.625 442.445 -399.625 443.125 C-401.0859375 444.4140625 -401.0859375 444.4140625 -403 445.75 C-403.62648438 446.19601562 -404.25296875 446.64203125 -404.8984375 447.1015625 C-406.625 448.125 -406.625 448.125 -408.625 448.125 C-408.955 449.115 -409.285 450.105 -409.625 451.125 C-413.84514032 453.57284034 -418.11429975 455.15297593 -423 455.0625 C-425.71636293 454.09237038 -427.54616014 453.12388448 -429.625 451.125 C-429.625 450.465 -429.625 449.805 -429.625 449.125 C-430.285 449.125 -430.945 449.125 -431.625 449.125 C-430.75340178 444.59268927 -429.44119463 440.5528027 -425.70703125 437.6171875 C-424.16805979 436.60533363 -422.61388727 435.61629802 -421.046875 434.6484375 C-417.95415488 432.70301678 -415.12141961 430.48581545 -412.25390625 428.2265625 C-410.625 427.125 -410.625 427.125 -408.625 427.125 C-408.625 426.465 -408.625 425.805 -408.625 425.125 C-407.1666733 423.89867982 -405.70442525 422.67644155 -404.21484375 421.48828125 C-402.02437628 419.60996885 -400.37097879 417.41283428 -398.625 415.125 C-397.625 414.125 -396.625 413.125 -395.625 412.125 C-395.295 411.465 -394.965 410.805 -394.625 410.125 C-393.965 410.125 -393.305 410.125 -392.625 410.125 C-392.50125 409.485625 -392.3775 408.84625 -392.25 408.1875 C-392.04375 407.506875 -391.8375 406.82625 -391.625 406.125 C-390.965 405.795 -390.305 405.465 -389.625 405.125 C-388.49149466 403.10830173 -388.49149466 403.10830173 -387.625 401.125 C-386.965 401.125 -386.305 401.125 -385.625 401.125 C-385.295 399.475 -384.965 397.825 -384.625 396.125 C-383.965 396.125 -383.305 396.125 -382.625 396.125 C-382.34914063 395.40957031 -382.07328125 394.69414062 -381.7890625 393.95703125 C-380.64251478 391.16761145 -379.36272885 388.50209642 -378 385.8125 C-377.55398438 384.92949219 -377.10796875 384.04648437 -376.6484375 383.13671875 C-376.14183594 382.14091797 -376.14183594 382.14091797 -375.625 381.125 C-376.43324219 381.07601563 -377.24148438 381.02703125 -378.07421875 380.9765625 C-379.14285156 380.90179688 -380.21148437 380.82703125 -381.3125 380.75 C-382.36824219 380.68039062 -383.42398438 380.61078125 -384.51171875 380.5390625 C-387.57551431 380.13158153 -389.8029373 379.34017842 -392.625 378.125 C-394.60100614 377.55149615 -396.58048112 376.98986592 -398.5625 376.4375 C-410.38700687 372.82074903 -421.92367307 366.85407915 -431.625 359.125 C-431.625 358.465 -431.625 357.805 -431.625 357.125 C-432.16125 356.898125 -432.6975 356.67125 -433.25 356.4375 C-440.11252086 352.64505426 -444.88774119 346.9714934 -448.625 340.125 C-449.32421875 336.80859375 -449.32421875 336.80859375 -449.625 334.125 C-450.285 334.125 -450.945 334.125 -451.625 334.125 C-452.60748524 330.0722484 -452.70659574 326.28638263 -452.625 322.125 C-453.285 322.125 -453.945 322.125 -454.625 322.125 C-454.625 315.195 -454.625 308.265 -454.625 301.125 C-453.965 301.125 -453.305 301.125 -452.625 301.125 C-452.58632813 300.2896875 -452.58632813 300.2896875 -452.546875 299.4375 C-452.10579885 293.50302093 -450.60485887 289.23968313 -447.625 284.125 C-447.08875 283.135 -446.5525 282.145 -446 281.125 C-445.54625 280.465 -445.0925 279.805 -444.625 279.125 C-443.965 279.125 -443.305 279.125 -442.625 279.125 C-442.2846875 278.2896875 -442.2846875 278.2896875 -441.9375 277.4375 C-439.5246839 273.18634783 -435.74463052 269.73409933 -431.625 267.125 C-430.635 267.125 -429.645 267.125 -428.625 267.125 C-428.625 266.465 -428.625 265.805 -428.625 265.125 C-413.99041301 259.67957228 -401.19987447 259.93085523 -386.625 265.125 C-383.69140625 266.63671875 -383.69140625 266.63671875 -381.625 268.125 C-381.625 268.785 -381.625 269.445 -381.625 270.125 C-380.6040625 270.434375 -380.6040625 270.434375 -379.5625 270.75 C-375.70963226 272.55347001 -372.46146032 274.93779458 -369.625 278.125 C-368.921875 280.3203125 -368.921875 280.3203125 -368.625 282.125 C-367.965 282.125 -367.305 282.125 -366.625 282.125 C-366.28726563 282.76308594 -365.94953125 283.40117187 -365.6015625 284.05859375 C-365.15554688 284.88488281 -364.70953125 285.71117187 -364.25 286.5625 C-363.80914062 287.38621094 -363.36828125 288.20992188 -362.9140625 289.05859375 C-361.79081441 291.25966578 -361.79081441 291.25966578 -359.625 292.125 C-358.33992879 294.75746689 -357.17217128 297.35680061 -356.0625 300.0625 C-355.74531006 300.83070068 -355.42812012 301.59890137 -355.10131836 302.39038086 C-352.8587791 308.03682738 -351.72205767 313.01036696 -351.625 319.125 C-350.965 319.125 -350.305 319.125 -349.625 319.125 C-347.88026 332.98945175 -348.07437247 347.25242155 -349.625 361.125 C-322.18491963 359.88617019 -289.82474111 341.34252353 -269.625 323.125 C-268.965 322.135 -268.305 321.145 -267.625 320.125 C-266.965 320.125 -266.305 320.125 -265.625 320.125 C-265.625 315.175 -265.625 310.225 -265.625 305.125 C-266.285 305.125 -266.945 305.125 -267.625 305.125 C-269.92112756 291.4917426 -269.92112756 291.4917426 -269.625 285.125 C-270.285 285.125 -270.945 285.125 -271.625 285.125 C-271.955 280.835 -272.285 276.545 -272.625 272.125 C-273.285 272.125 -273.945 272.125 -274.625 272.125 C-274.955 268.165 -275.285 264.205 -275.625 260.125 C-276.285 260.125 -276.945 260.125 -277.625 260.125 C-279.92112756 246.4917426 -279.92112756 246.4917426 -279.625 240.125 C-280.285 240.125 -280.945 240.125 -281.625 240.125 C-281.955 235.835 -282.285 231.545 -282.625 227.125 C-283.285 227.125 -283.945 227.125 -284.625 227.125 C-284.955 222.835 -285.285 218.545 -285.625 214.125 C-286.285 214.125 -286.945 214.125 -287.625 214.125 C-287.96410994 212.08428485 -288.29602704 210.04237379 -288.625 208 C-288.810625 206.86304688 -288.99625 205.72609375 -289.1875 204.5546875 C-289.59456049 201.36362398 -289.70309902 198.33682209 -289.625 195.125 C-290.285 195.125 -290.945 195.125 -291.625 195.125 C-291.74875 194.485625 -291.8725 193.84625 -292 193.1875 C-292.20625 192.506875 -292.4125 191.82625 -292.625 191.125 C-293.285 190.795 -293.945 190.465 -294.625 190.125 C-294.625 189.465 -294.625 188.805 -294.625 188.125 C-296.275 187.795 -297.925 187.465 -299.625 187.125 C-299.625 186.465 -299.625 185.805 -299.625 185.125 C-302.595 184.465 -305.565 183.805 -308.625 183.125 C-308.625 182.465 -308.625 181.805 -308.625 181.125 C-310.605 180.795 -312.585 180.465 -314.625 180.125 C-314.625 179.465 -314.625 178.805 -314.625 178.125 C-316.275 177.795 -317.925 177.465 -319.625 177.125 C-319.625 176.465 -319.625 175.805 -319.625 175.125 C-320.553125 174.980625 -321.48125 174.83625 -322.4375 174.6875 C-325.625 174.125 -325.625 174.125 -328.625 173.125 C-328.625 172.465 -328.625 171.805 -328.625 171.125 C-330.605 170.795 -332.585 170.465 -334.625 170.125 C-334.625 169.465 -334.625 168.805 -334.625 168.125 C-336.275 167.795 -337.925 167.465 -339.625 167.125 C-339.625 166.465 -339.625 165.805 -339.625 165.125 C-341.0171875 164.9084375 -341.0171875 164.9084375 -342.4375 164.6875 C-345.625 164.125 -345.625 164.125 -348.625 163.125 C-348.625 162.465 -348.625 161.805 -348.625 161.125 C-350.605 160.795 -352.585 160.465 -354.625 160.125 C-354.625 159.465 -354.625 158.805 -354.625 158.125 C-356.275 157.795 -357.925 157.465 -359.625 157.125 C-359.625 156.465 -359.625 155.805 -359.625 155.125 C-360.718125 154.980625 -361.81125 154.83625 -362.9375 154.6875 C-366.625 154.125 -366.625 154.125 -369.625 153.125 C-369.625 152.465 -369.625 151.805 -369.625 151.125 C-371.605 150.795 -373.585 150.465 -375.625 150.125 C-375.625 149.465 -375.625 148.805 -375.625 148.125 C-377.605 147.795 -379.585 147.465 -381.625 147.125 C-381.625 146.465 -381.625 145.805 -381.625 145.125 C-382.388125 144.980625 -383.15125 144.83625 -383.9375 144.6875 C-386.625 144.125 -386.625 144.125 -389.625 143.125 C-389.625 142.465 -389.625 141.805 -389.625 141.125 C-391.605 140.795 -393.585 140.465 -395.625 140.125 C-395.625 139.465 -395.625 138.805 -395.625 138.125 C-397.0790625 137.939375 -397.0790625 137.939375 -398.5625 137.75 C-399.573125 137.54375 -400.58375 137.3375 -401.625 137.125 C-401.955 136.465 -402.285 135.805 -402.625 135.125 C-403.615 134.795 -404.605 134.465 -405.625 134.125 C-406.64202117 131.0739365 -406.79082083 128.88300939 -406.8125 125.6875 C-406.82667969 124.74003906 -406.84085938 123.79257813 -406.85546875 122.81640625 C-406.62114518 120.07998356 -406.02201383 118.46071877 -404.625 116.125 C-403.635 116.125 -402.645 116.125 -401.625 116.125 C-401.625 115.465 -401.625 114.805 -401.625 114.125 C-399.315 113.795 -397.005 113.465 -394.625 113.125 C-394.625 112.465 -394.625 111.805 -394.625 111.125 C-389.675 110.63 -389.675 110.63 -384.625 110.125 C-384.625 109.465 -384.625 108.805 -384.625 108.125 C-379.24472975 106.93411014 -374.17208616 105.8330481 -368.625 106.125 C-368.625 105.465 -368.625 104.805 -368.625 104.125 C-363.675 103.63 -363.675 103.63 -358.625 103.125 C-358.625 102.465 -358.625 101.805 -358.625 101.125 C-353.675 100.63 -353.675 100.63 -348.625 100.125 C-348.625 99.465 -348.625 98.805 -348.625 98.125 C-347.0426994 97.78679834 -345.45910625 97.45464061 -343.875 97.125 C-342.55242187 96.8465625 -342.55242187 96.8465625 -341.203125 96.5625 C-338.625 96.125 -338.625 96.125 -334.625 96.125 C-334.625 95.465 -334.625 94.805 -334.625 94.125 C-329.675 93.63 -329.675 93.63 -324.625 93.125 C-324.625 92.465 -324.625 91.805 -324.625 91.125 C-321.325 90.795 -318.025 90.465 -314.625 90.125 C-314.625 89.465 -314.625 88.805 -314.625 88.125 C-313.06383181 87.78548381 -311.50098662 87.45367456 -309.9375 87.125 C-309.06738281 86.939375 -308.19726562 86.75375 -307.30078125 86.5625 C-304.68787036 86.13527953 -302.26686962 86.04883799 -299.625 86.125 C-299.625 85.465 -299.625 84.805 -299.625 84.125 C-296.325 83.795 -293.025 83.465 -289.625 83.125 C-289.625 82.465 -289.625 81.805 -289.625 81.125 C-285.995 80.795 -282.365 80.465 -278.625 80.125 C-278.625 79.465 -278.625 78.805 -278.625 78.125 C-269.21497722 75.82887244 -269.21497722 75.82887244 -264.625 76.125 C-264.625 75.465 -264.625 74.805 -264.625 74.125 C-261.325 73.795 -258.025 73.465 -254.625 73.125 C-254.625 72.465 -254.625 71.805 -254.625 71.125 C-251.325 70.795 -248.025 70.465 -244.625 70.125 C-244.625 69.465 -244.625 68.805 -244.625 68.125 C-243.06383181 67.78548381 -241.50098662 67.45367456 -239.9375 67.125 C-239.06738281 66.939375 -238.19726562 66.75375 -237.30078125 66.5625 C-234.68787036 66.13527953 -232.26686962 66.04883799 -229.625 66.125 C-229.625 65.465 -229.625 64.805 -229.625 64.125 C-226.325 63.795 -223.025 63.465 -219.625 63.125 C-219.625 62.465 -219.625 61.805 -219.625 61.125 C-216.325 60.795 -213.025 60.465 -209.625 60.125 C-209.625 59.465 -209.625 58.805 -209.625 58.125 C-204.68238183 56.97172243 -199.66838661 56.58527023 -194.625 56.125 C-194.625 55.465 -194.625 54.805 -194.625 54.125 C-191.655 53.795 -188.685 53.465 -185.625 53.125 C-185.625 52.465 -185.625 51.805 -185.625 51.125 C-180.675 50.63 -180.675 50.63 -175.625 50.125 C-175.625 49.465 -175.625 48.805 -175.625 48.125 C-170.68238183 46.97172243 -165.66838661 46.58527023 -160.625 46.125 C-160.625 45.465 -160.625 44.805 -160.625 44.125 C-155.675 43.63 -155.675 43.63 -150.625 43.125 C-150.625 42.465 -150.625 41.805 -150.625 41.125 C-149.985625 41.00125 -149.34625 40.8775 -148.6875 40.75 C-140.94262077 39.21181689 -140.94262077 39.21181689 -133.375 37 C-130.61803928 36.12278523 -128.49594768 35.95612072 -125.625 36.125 C-125.625 35.465 -125.625 34.805 -125.625 34.125 C-120.675 33.63 -120.675 33.63 -115.625 33.125 C-115.625 32.465 -115.625 31.805 -115.625 31.125 C-112.325 30.795 -109.025 30.465 -105.625 30.125 C-105.625 29.465 -105.625 28.805 -105.625 28.125 C-100.68238183 26.97172243 -95.66838661 26.58527023 -90.625 26.125 C-90.625 25.465 -90.625 24.805 -90.625 24.125 C-87.655 23.795 -84.685 23.465 -81.625 23.125 C-81.625 22.465 -81.625 21.805 -81.625 21.125 C-78.325 20.795 -75.025 20.465 -71.625 20.125 C-71.625 19.465 -71.625 18.805 -71.625 18.125 C-69.645 18.455 -67.665 18.785 -65.625 19.125 C-65.625 18.465 -65.625 17.805 -65.625 17.125 C-62.325 16.795 -59.025 16.465 -55.625 16.125 C-55.625 15.465 -55.625 14.805 -55.625 14.125 C-52.325 13.795 -49.025 13.465 -45.625 13.125 C-45.625 12.465 -45.625 11.805 -45.625 11.125 C-42.325 10.795 -39.025 10.465 -35.625 10.125 C-35.625 9.465 -35.625 8.805 -35.625 8.125 C-32.54415045 7.26840865 -29.55707999 6.85558631 -26.375 6.5625 C-25.48296875 6.47871094 -24.5909375 6.39492188 -23.671875 6.30859375 C-22.99640625 6.24800781 -22.3209375 6.18742187 -21.625 6.125 C-21.625 5.465 -21.625 4.805 -21.625 4.125 C-18.325 3.795 -15.025 3.465 -11.625 3.125 C-11.625 2.465 -11.625 1.805 -11.625 1.125 C-7.79628327 -0.11197002 -3.97793434 -0.02286169 0 0 Z M-77.625 68.125 C-77.625 68.785 -77.625 69.445 -77.625 70.125 C-76.965 70.125 -76.305 70.125 -75.625 70.125 C-75.625 69.465 -75.625 68.805 -75.625 68.125 C-76.285 68.125 -76.945 68.125 -77.625 68.125 Z M-82.625 71.125 C-82.625 71.785 -82.625 72.445 -82.625 73.125 C-83.7696875 73.3415625 -83.7696875 73.3415625 -84.9375 73.5625 C-87.70672908 74.0882594 -87.70672908 74.0882594 -90.625 75.125 C-90.625 75.785 -90.625 76.445 -90.625 77.125 C-91.945 77.455 -93.265 77.785 -94.625 78.125 C-94.625 78.785 -94.625 79.445 -94.625 80.125 C-96.605 80.455 -98.585 80.785 -100.625 81.125 C-100.955 82.115 -101.285 83.105 -101.625 84.125 C-102.615 84.125 -103.605 84.125 -104.625 84.125 C-104.625 84.785 -104.625 85.445 -104.625 86.125 C-105.615 85.795 -106.605 85.465 -107.625 85.125 C-107.955 86.115 -108.285 87.105 -108.625 88.125 C-109.615 88.125 -110.605 88.125 -111.625 88.125 C-111.955 88.785 -112.285 89.445 -112.625 90.125 C-113.615 90.455 -114.605 90.785 -115.625 91.125 C-115.625 91.785 -115.625 92.445 -115.625 93.125 C-116.40875 93.269375 -117.1925 93.41375 -118 93.5625 C-120.58921018 94.00298925 -120.58921018 94.00298925 -122.625 95.125 C-122.625 95.785 -122.625 96.445 -122.625 97.125 C-124.275 97.455 -125.925 97.785 -127.625 98.125 C-127.625 98.785 -127.625 99.445 -127.625 100.125 C-128.40875 100.269375 -129.1925 100.41375 -130 100.5625 C-132.58921018 101.00298925 -132.58921018 101.00298925 -134.625 102.125 C-134.625 102.785 -134.625 103.445 -134.625 104.125 C-135.945 104.455 -137.265 104.785 -138.625 105.125 C-138.625 105.785 -138.625 106.445 -138.625 107.125 C-139.594375 107.24875 -140.56375 107.3725 -141.5625 107.5 C-142.573125 107.70625 -143.58375 107.9125 -144.625 108.125 C-144.955 108.785 -145.285 109.445 -145.625 110.125 C-146.615 110.455 -147.605 110.785 -148.625 111.125 C-148.625 111.785 -148.625 112.445 -148.625 113.125 C-149.223125 113.269375 -149.82125 113.41375 -150.4375 113.5625 C-152.18650404 114.0122439 -153.91177023 114.55392341 -155.625 115.125 C-155.625 115.785 -155.625 116.445 -155.625 117.125 C-157.275 117.455 -158.925 117.785 -160.625 118.125 C-160.625 118.785 -160.625 119.445 -160.625 120.125 C-161.945 120.455 -163.265 120.785 -164.625 121.125 C-164.625 121.785 -164.625 122.445 -164.625 123.125 C-166.11 122.63 -166.11 122.63 -167.625 122.125 C-167.625 122.785 -167.625 123.445 -167.625 124.125 C-168.945 124.455 -170.265 124.785 -171.625 125.125 C-171.625 125.785 -171.625 126.445 -171.625 127.125 C-172.223125 127.269375 -172.82125 127.41375 -173.4375 127.5625 C-175.18650404 128.0122439 -176.91177023 128.55392341 -178.625 129.125 C-178.625 129.785 -178.625 130.445 -178.625 131.125 C-179.945 131.455 -181.265 131.785 -182.625 132.125 C-182.625 132.785 -182.625 133.445 -182.625 134.125 C-184.605 134.455 -186.585 134.785 -188.625 135.125 C-188.625 135.785 -188.625 136.445 -188.625 137.125 C-189.945 137.455 -191.265 137.785 -192.625 138.125 C-192.625 138.785 -192.625 139.445 -192.625 140.125 C-194.275 140.455 -195.925 140.785 -197.625 141.125 C-197.625 141.785 -197.625 142.445 -197.625 143.125 C-198.800625 143.3415625 -198.800625 143.3415625 -200 143.5625 C-202.58921018 144.00298925 -202.58921018 144.00298925 -204.625 145.125 C-204.625 145.785 -204.625 146.445 -204.625 147.125 C-205.945 147.455 -207.265 147.785 -208.625 148.125 C-208.625 148.785 -208.625 149.445 -208.625 150.125 C-210.11 149.63 -210.11 149.63 -211.625 149.125 C-211.625 149.785 -211.625 150.445 -211.625 151.125 C-213.605 151.62 -213.605 151.62 -215.625 152.125 C-215.625 152.785 -215.625 153.445 -215.625 154.125 C-216.18316406 154.23070312 -216.74132812 154.33640625 -217.31640625 154.4453125 C-220.05598632 155.25188937 -222.13607128 156.49703491 -224.5625 158 C-225.39652344 158.51304687 -226.23054688 159.02609375 -227.08984375 159.5546875 C-228.81185927 160.62132886 -230.53319 161.6890764 -232.25390625 162.7578125 C-234.625 164.125 -234.625 164.125 -237.625 165.125 C-237.955 165.785 -238.285 166.445 -238.625 167.125 C-239.615 167.455 -240.605 167.785 -241.625 168.125 C-241.625 168.785 -241.625 169.445 -241.625 170.125 C-243.605 170.62 -243.605 170.62 -245.625 171.125 C-245.625 171.785 -245.625 172.445 -245.625 173.125 C-247.11 172.63 -247.11 172.63 -248.625 172.125 C-248.955 172.785 -249.285 173.445 -249.625 174.125 C-251.11 174.62 -251.11 174.62 -252.625 175.125 C-252.625 175.785 -252.625 176.445 -252.625 177.125 C-255.1 177.62 -255.1 177.62 -257.625 178.125 C-257.625 178.785 -257.625 179.445 -257.625 180.125 C-259.605 180.62 -259.605 180.62 -261.625 181.125 C-261.625 181.785 -261.625 182.445 -261.625 183.125 C-262.615 182.795 -263.605 182.465 -264.625 182.125 C-264.625 182.785 -264.625 183.445 -264.625 184.125 C-266.605 184.62 -266.605 184.62 -268.625 185.125 C-268.625 185.785 -268.625 186.445 -268.625 187.125 C-270.605 187.62 -270.605 187.62 -272.625 188.125 C-272.625 188.785 -272.625 189.445 -272.625 190.125 C-273.615 189.795 -274.605 189.465 -275.625 189.125 C-275.78373088 197.67324466 -275.78373088 197.67324466 -274.625 206.125 C-273.965 206.125 -273.305 206.125 -272.625 206.125 C-272.295 210.745 -271.965 215.365 -271.625 220.125 C-270.965 220.125 -270.305 220.125 -269.625 220.125 C-269.58761719 220.82882813 -269.55023438 221.53265625 -269.51171875 222.2578125 C-268.96797097 230.42469096 -267.45484751 238.15919644 -265.625 246.125 C-265.28522092 247.79036455 -264.94933257 249.45655843 -264.625 251.125 C-263.965 251.125 -263.305 251.125 -262.625 251.125 C-262.295 255.415 -261.965 259.705 -261.625 264.125 C-260.965 264.125 -260.305 264.125 -259.625 264.125 C-259.56441406 264.98222656 -259.50382812 265.83945312 -259.44140625 266.72265625 C-259.01356464 272.56104873 -258.565837 278.34557272 -257.625 284.125 C-256.965 284.125 -256.305 284.125 -255.625 284.125 C-255.625 286.435 -255.625 288.745 -255.625 291.125 C-255.295 291.125 -254.965 291.125 -254.625 291.125 C-254.625 288.815 -254.625 286.505 -254.625 284.125 C-253.965 284.125 -253.305 284.125 -252.625 284.125 C-252.295 279.505 -251.965 274.885 -251.625 270.125 C-250.965 270.125 -250.305 270.125 -249.625 270.125 C-249.28534526 267.93847261 -248.95357523 265.75071975 -248.625 263.5625 C-248.439375 262.34433594 -248.25375 261.12617188 -248.0625 259.87109375 C-247.63944923 256.24872152 -247.54998575 252.76787954 -247.625 249.125 C-246.965 249.125 -246.305 249.125 -245.625 249.125 C-244.77818867 244.04413204 -244.53461901 239.27671623 -244.625 234.125 C-243.965 234.125 -243.305 234.125 -242.625 234.125 C-242.295 230.825 -241.965 227.525 -241.625 224.125 C-240.965 224.125 -240.305 224.125 -239.625 224.125 C-239.356875 222.990625 -239.08875 221.85625 -238.8125 220.6875 C-238.420625 219.511875 -238.02875 218.33625 -237.625 217.125 C-236.635 216.795 -235.645 216.465 -234.625 216.125 C-234.625 215.465 -234.625 214.805 -234.625 214.125 C-233.84125 214.063125 -233.0575 214.00125 -232.25 213.9375 C-230.950625 213.5353125 -230.950625 213.5353125 -229.625 213.125 C-228.94367549 211.46427151 -228.27757873 209.797233 -227.625 208.125 C-225.9614521 207.45058869 -224.29433058 206.7849679 -222.625 206.125 C-220.67080529 204.25045997 -219.23481283 202.3327433 -217.625 200.125 C-217.625 199.465 -217.625 198.805 -217.625 198.125 C-214.655 197.135 -214.655 197.135 -211.625 196.125 C-211.625 195.465 -211.625 194.805 -211.625 194.125 C-210.305 193.465 -208.985 192.805 -207.625 192.125 C-207.625 191.465 -207.625 190.805 -207.625 190.125 C-206.635 189.795 -205.645 189.465 -204.625 189.125 C-204.625 188.465 -204.625 187.805 -204.625 187.125 C-203.635 186.795 -202.645 186.465 -201.625 186.125 C-199.9162354 184.74985459 -199.9162354 184.74985459 -198.625 183.125 C-198.625 182.465 -198.625 181.805 -198.625 181.125 C-198.0475 181.0425 -197.47 180.96 -196.875 180.875 C-193.9710664 179.90702213 -192.58759396 178.43805716 -190.625 176.125 C-190.625 175.465 -190.625 174.805 -190.625 174.125 C-189.635 173.795 -188.645 173.465 -187.625 173.125 C-187.625 172.465 -187.625 171.805 -187.625 171.125 C-187.068125 170.856875 -186.51125 170.58875 -185.9375 170.3125 C-181.56838805 168.06890197 -177.88230745 165.86487151 -174.625 162.125 C-174.625 161.465 -174.625 160.805 -174.625 160.125 C-173.635 159.795 -172.645 159.465 -171.625 159.125 C-170.28076661 157.46711215 -168.94881517 155.79923683 -167.625 154.125 C-166.26375 153.0421875 -166.26375 153.0421875 -164.875 151.9375 C-164.1325 151.339375 -163.39 150.74125 -162.625 150.125 C-162.625 149.465 -162.625 148.805 -162.625 148.125 C-160.975 147.465 -159.325 146.805 -157.625 146.125 C-157.625 145.465 -157.625 144.805 -157.625 144.125 C-156.7278125 143.7228125 -156.7278125 143.7228125 -155.8125 143.3125 C-153.62652146 142.12582594 -152.21167406 141.02900887 -150.625 139.125 C-150.625 138.465 -150.625 137.805 -150.625 137.125 C-149.635 136.795 -148.645 136.465 -147.625 136.125 C-147.625 135.465 -147.625 134.805 -147.625 134.125 C-146.635 133.795 -145.645 133.465 -144.625 133.125 C-144.625 132.465 -144.625 131.805 -144.625 131.125 C-144.068125 131.0425 -143.51125 130.96 -142.9375 130.875 C-138.60792899 129.47081481 -135.99039929 126.56347915 -133.125 123.125 C-130.80983641 120.3468037 -128.43065818 118.36952655 -125.625 116.125 C-125.625 115.465 -125.625 114.805 -125.625 114.125 C-124.6659375 113.9703125 -124.6659375 113.9703125 -123.6875 113.8125 C-123.006875 113.585625 -122.32625 113.35875 -121.625 113.125 C-121.295 112.135 -120.965 111.145 -120.625 110.125 C-119.635 109.795 -118.645 109.465 -117.625 109.125 C-117.625 108.465 -117.625 107.805 -117.625 107.125 C-116.635 106.795 -115.645 106.465 -114.625 106.125 C-114.625 105.465 -114.625 104.805 -114.625 104.125 C-112.645 103.135 -112.645 103.135 -110.625 102.125 C-110.625 101.465 -110.625 100.805 -110.625 100.125 C-109.635 99.795 -108.645 99.465 -107.625 99.125 C-107.625 98.465 -107.625 97.805 -107.625 97.125 C-106.903125 97.08375 -106.18125 97.0425 -105.4375 97 C-102.1245751 95.96931225 -100.94883892 94.39965452 -98.890625 91.68359375 C-97.09141193 89.46789618 -94.86915534 87.87045416 -92.625 86.125 C-92.295 85.465 -91.965 84.805 -91.625 84.125 C-89.5625 83 -89.5625 83 -87.625 82.125 C-87.625 81.465 -87.625 80.805 -87.625 80.125 C-86.635 79.795 -85.645 79.465 -84.625 79.125 C-84.625 78.465 -84.625 77.805 -84.625 77.125 C-83.635 76.795 -82.645 76.465 -81.625 76.125 C-79.4164234 74.24991838 -79.4164234 74.24991838 -77.625 72.125 C-77.625 71.465 -77.625 70.805 -77.625 70.125 C-80.5504644 69.9013932 -80.5504644 69.9013932 -82.625 71.125 Z M-425.625 285.125 C-426.32625 285.82625 -427.0275 286.5275 -427.75 287.25 C-428.36875 288.19875 -428.9875 289.1475 -429.625 290.125 C-430.13160156 290.89714844 -430.63820313 291.66929687 -431.16015625 292.46484375 C-437.14514778 302.32663831 -437.81049436 312.88764467 -435.625 324.125 C-434.49080735 327.55985173 -433.15339236 330.84784242 -431.625 334.125 C-430.965 334.125 -430.305 334.125 -429.625 334.125 C-429.295 335.115 -428.965 336.105 -428.625 337.125 C-426.74991838 339.3335766 -426.74991838 339.3335766 -424.625 341.125 C-423.965 341.125 -423.305 341.125 -422.625 341.125 C-422.295 342.115 -421.965 343.105 -421.625 344.125 C-416.00638806 348.80930973 -407.09186939 355.125 -399.625 355.125 C-399.625 355.785 -399.625 356.445 -399.625 357.125 C-391.68055222 360.17259077 -384.18089556 361.80252237 -375.77734375 362.73046875 C-372.625 363.125 -372.625 363.125 -369.625 364.125 C-367.60168476 356.11354735 -367.32200793 348.42335164 -367.375 340.1875 C-367.36726563 338.98931641 -367.35953125 337.79113281 -367.3515625 336.55664062 C-367.37433113 326.11152948 -368.61306587 316.79011404 -372.625 307.125 C-373.285 307.125 -373.945 307.125 -374.625 307.125 C-374.66625 306.3 -374.7075 305.475 -374.75 304.625 C-375.78673289 300.47806843 -377.60260695 298.14316061 -380.25 294.859375 C-381.625 293.125 -381.625 293.125 -382.625 291.125 C-383.285 291.125 -383.945 291.125 -384.625 291.125 C-385.285 289.805 -385.945 288.485 -386.625 287.125 C-387.285 287.125 -387.945 287.125 -388.625 287.125 C-388.625 286.465 -388.625 285.805 -388.625 285.125 C-391.27238916 283.6643715 -392.51948334 283.125 -395.625 283.125 C-395.625 282.465 -395.625 281.805 -395.625 281.125 C-405.07911901 278.5117737 -418.32502071 277.76350403 -425.625 285.125 Z " fill="#FEFEFE" transform="translate(476.625,26.875)"/>
<path d="M0 0 C1.38226016 2.76452033 1.09525387 5.0461363 1.0625 8.125 C1.05347656 9.22070312 1.04445313 10.31640625 1.03515625 11.4453125 C1.02355469 12.28835938 1.01195313 13.13140625 1 14 C-1.32686898 15.01800518 -3.65914123 16.01507263 -6 17 C-6.68320312 17.29777344 -7.36640625 17.59554688 -8.0703125 17.90234375 C-11.07597179 19.14232106 -13.4125437 20 -16.6875 20 C-19.85619423 18.62975385 -21.71055074 16.54383251 -24 14 C-24.33 13.67 -24.66 13.34 -25 13 C-25.53110045 9.10526335 -25.37741251 7.50714806 -23 4.3125 C-16.21184805 -0.92003379 -8.27021507 -2.75673836 0 0 Z " fill="#FFFFFF" transform="translate(27,482)"/>
<path d="M0 0 C0.66 0 1.32 0 2 0 C1.49396008 2.16874252 1.00016187 3.99967627 0 6 C-0.99 6 -1.98 6 -3 6 C-3.3403125 6.86625 -3.3403125 6.86625 -3.6875 7.75 C-5.34848222 10.59739809 -7.31524561 12.12067193 -10 14 C-10.66 14 -11.32 14 -12 14 C-12.33 14.99 -12.66 15.98 -13 17 C-13.66 17 -14.32 17 -15 17 C-15.66 18.32 -16.32 19.64 -17 21 C-17.66 21 -18.32 21 -19 21 C-19.495 22.485 -19.495 22.485 -20 24 C-20.66 24 -21.32 24 -22 24 C-22.495 25.485 -22.495 25.485 -23 27 C-25 28.33333333 -27 29.66666667 -29 31 C-30.34423339 32.65788785 -31.67618483 34.32576317 -33 36 C-34.87768593 37.75307977 -36.81400065 39.42025102 -38.76953125 41.0859375 C-41.95141121 43.81644745 -45.02881274 46.66059985 -48.1171875 49.49609375 C-50 51 -50 51 -52 51 C-52.33 51.99 -52.66 52.98 -53 54 C-53.66 54 -54.32 54 -55 54 C-55.66 55.32 -56.32 56.64 -57 58 C-57.66 58 -58.32 58 -59 58 C-60.96301592 61.50538557 -61.95902388 65.13351728 -63 69 C-63.66 69 -64.32 69 -65 69 C-65 70.98 -65 72.96 -65 75 C-65.66 75 -66.32 75 -67 75 C-67.0272415 73.58344207 -67.04650467 72.16672955 -67.0625 70.75 C-67.07410156 69.96109375 -67.08570313 69.1721875 -67.09765625 68.359375 C-67.00385306 66.09308998 -66.63241063 64.1711105 -66 62 C-65.34 62 -64.68 62 -64 62 C-63.67 60.35 -63.34 58.7 -63 57 C-62.01 57 -61.02 57 -60 57 C-59.71125 56.401875 -59.4225 55.80375 -59.125 55.1875 C-56.54940434 50.17939734 -56.54940434 50.17939734 -52.9375 49 C-51.4834375 48.505 -51.4834375 48.505 -50 48 C-49.67 47.01 -49.34 46.02 -49 45 C-48.34 45 -47.68 45 -47 45 C-46.67 44.01 -46.34 43.02 -46 42 C-45.01 42 -44.02 42 -43 42 C-42.67 40.68 -42.34 39.36 -42 38 C-41.34 38 -40.68 38 -40 38 C-39.67 37.01 -39.34 36.02 -39 35 C-38.34 35 -37.68 35 -37 35 C-37 34.34 -37 33.68 -37 33 C-35.515 32.505 -35.515 32.505 -34 32 C-33.34 31.01 -32.68 30.02 -32 29 C-31.34 29 -30.68 29 -30 29 C-29.505 27.515 -29.505 27.515 -29 26 C-28.01 26 -27.02 26 -26 26 C-25.773125 25.443125 -25.54625 24.88625 -25.3125 24.3125 C-22.11022473 18.67039596 -16.13422222 13.93283689 -11 10 C-10.34 10 -9.68 10 -9 10 C-9 9.34 -9 8.68 -9 8 C-8.34 8 -7.68 8 -7 8 C-6.773125 7.195625 -6.54625 6.39125 -6.3125 5.5625 C-5.879375 4.716875 -5.44625 3.87125 -5 3 C-2.375 2.1875 -2.375 2.1875 0 2 C0 1.34 0 0.68 0 0 Z " fill="#FEFEFE" transform="translate(508,168)"/>
<path d="M0 0 C1.98 0.99 3.96 1.98 6 3 C6 3.66 6 4.32 6 5 C6.99 5.33 7.98 5.66 9 6 C9 6.66 9 7.32 9 8 C9.70125 8.20625 10.4025 8.4125 11.125 8.625 C14.77992778 10.37300894 17.58076124 12.73278064 20 16 C20 16.99 20 17.98 20 19 C19.34 19 18.68 19 18 19 C18 18.34 18 17.68 18 17 C17.360625 16.896875 16.72125 16.79375 16.0625 16.6875 C15.381875 16.460625 14.70125 16.23375 14 16 C13.505 14.515 13.505 14.515 13 13 C11.16715557 11.87483915 11.16715557 11.87483915 9 11 C7.66666667 10.33333333 6.33333333 9.66666667 5 9 C5 8.34 5 7.68 5 7 C4.34 7 3.68 7 3 7 C3 6.01 3 5.02 3 4 C2.21625 4.495 1.4325 4.99 0.625 5.5 C-2 7 -2 7 -4 7 C-4.33 7.99 -4.66 8.98 -5 10 C-5.66 10 -6.32 10 -7 10 C-7.66 11.32 -8.32 12.64 -9 14 C-9.66 14 -10.32 14 -11 14 C-11.33 14.99 -11.66 15.98 -12 17 C-12.66 17 -13.32 17 -14 17 C-14.495 18.485 -14.495 18.485 -15 20 C-15.66 20 -16.32 20 -17 20 C-17.0928125 20.8353125 -17.0928125 20.8353125 -17.1875 21.6875 C-18.3447487 24.98120783 -20.48318929 26.59504754 -23 29 C-23.94773087 30.11639484 -24.88475873 31.24193893 -25.8125 32.375 C-28.63265634 35.72575276 -31.77981736 38.47734073 -35.1171875 41.30078125 C-36.84443994 42.85960866 -38.25409519 44.42443728 -39.6875 46.25 C-41.97168258 48.96632523 -43.82874171 50.45722569 -47 52 C-47.66 52 -48.32 52 -49 52 C-48.75 50.125 -48.75 50.125 -48 48 C-46.67532254 47.3162955 -45.34136367 46.65035814 -44 46 C-43.7009375 45.38382812 -43.401875 44.76765625 -43.09375 44.1328125 C-41.85404168 41.71538127 -40.54930835 40.55915614 -38.4375 38.875 C-35.78974334 36.79096366 -35.78974334 36.79096366 -34 34 C-33.34 34 -32.68 34 -32 34 C-31.73807861 33.41210693 -31.47615723 32.82421387 -31.20629883 32.21850586 C-29.93524192 29.88090333 -28.59262044 28.36347396 -26.69921875 26.50390625 C-26.05146484 25.86259766 -25.40371094 25.22128906 -24.73632812 24.56054688 C-24.06021484 23.90119141 -23.38410156 23.24183594 -22.6875 22.5625 C-22.02298828 21.90701172 -21.35847656 21.25152344 -20.67382812 20.57617188 C-18.7857118 18.71420157 -16.89336102 16.85663466 -15 15 C-12.17049557 12.21408737 -9.45406323 9.44534734 -6.9375 6.375 C-4.82297178 3.86707118 -2.76716181 1.8092981 0 0 Z " fill="#FEFEFE" transform="translate(490,275)"/>
<path d="M0 0 C0.66 0 1.32 0 2 0 C2 0.99 2 1.98 2 3 C1.34 3 0.68 3 0 3 C0 3.99 0 4.98 0 6 C-0.969375 6.28875 -1.93875 6.5775 -2.9375 6.875 C-6.10664203 7.64214682 -6.10664203 7.64214682 -7 10 C-8.33333333 10.33333333 -9.66666667 10.66666667 -11 11 C-11.33 11.66 -11.66 12.32 -12 13 C-14 13.66666667 -16 14.33333333 -18 15 C-18.33 15.66 -18.66 16.32 -19 17 C-21.62581138 18.57548683 -22.87099787 19 -26 19 C-26.33 19.99 -26.66 20.98 -27 22 C-27.99 21.67 -28.98 21.34 -30 21 C-30 21.99 -30 22.98 -30 24 C-32.64738916 25.4606285 -33.89448334 26 -37 26 C-37.33 26.99 -37.66 27.98 -38 29 C-39.875 29.625 -39.875 29.625 -42 30 C-42.99 30.33 -43.98 30.66 -45 31 C-45 31.66 -45 32.32 -45 33 C-46.32 33 -47.64 33 -49 33 C-49 33.99 -49 34.98 -49 36 C-49.99 36 -50.98 36 -52 36 C-51.67 34.68 -51.34 33.36 -51 32 C-50.34 32 -49.68 32 -49 32 C-49 31.34 -49 30.68 -49 30 C-47.35 29.67 -45.7 29.34 -44 29 C-44 28.34 -44 27.68 -44 27 C-43.360625 26.87625 -42.72125 26.7525 -42.0625 26.625 C-41.381875 26.41875 -40.70125 26.2125 -40 26 C-39.67 25.34 -39.34 24.68 -39 24 C-38.34 24.33 -37.68 24.66 -37 25 C-36.67 24.01 -36.34 23.02 -36 22 C-35.01 22 -34.02 22 -33 22 C-33 21.34 -33 20.68 -33 20 C-30.69 19.34 -28.38 18.68 -26 18 C-26 17.34 -26 16.68 -26 16 C-19.25 12 -19.25 12 -17 12 C-17 11.34 -17 10.68 -17 10 C-15.71086513 9.32845067 -14.41859796 8.66291141 -13.125 8 C-12.40570313 7.62875 -11.68640625 7.2575 -10.9453125 6.875 C-9 6 -9 6 -7 6 C-7 5.34 -7 4.68 -7 4 C-4.35261084 2.5393715 -3.10551666 2 0 2 C0 1.34 0 0.68 0 0 Z " fill="#FEFEFE" transform="translate(508,131)"/>
<path d="M0 0 C0.66 0 1.32 0 2 0 C2 0.66 2 1.32 2 2 C4.97 2.495 4.97 2.495 8 3 C8 3.66 8 4.32 8 5 C8.86625 5.0825 9.7325 5.165 10.625 5.25 C14.53262781 6.11836174 16.89991802 7.49040983 20 10 C20 10.99 20 11.98 20 13 C17.525 12.505 17.525 12.505 15 12 C15 11.34 15 10.68 15 10 C14.21625 9.87625 13.4325 9.7525 12.625 9.625 C10 9 10 9 8 7 C5.93125966 6.3574765 5.93125966 6.3574765 4 6 C4 5.34 4 4.68 4 4 C2.35 3.67 0.7 3.34 -1 3 C-0.67 2.01 -0.34 1.02 0 0 Z " fill="#FEFEFE" transform="translate(490,11)"/>
<path d="M0 0 C0.99 0.33 1.98 0.66 3 1 C2.01 1 1.02 1 0 1 C0 0.67 0 0.34 0 0 Z " fill="#FEFEFE" transform="translate(486,11)"/>
<path d="M0 0 C2 1 2 1 2 1 Z " fill="#FEFEFE" transform="translate(507,18)"/>
<path d="" fill="#FEFEFE" transform="translate(0,0)"/>
</svg>
